<svg width="71" height="79" viewBox="0 0 71 79" fill="none" xmlns="http://www.w3.org/2000/svg">
<g id="Group 20">
<path id="Ellipse 40" d="M63.478 39.5045C63.478 56.421 50.9701 70.1346 35.5407 70.1346C20.1113 70.1346 7.60333 56.421 7.60333 39.5045C7.60333 22.5879 20.1113 8.87436 35.5407 8.87436C50.9701 8.87436 63.478 22.5879 63.478 39.5045ZM12.8055 39.5045C12.8055 53.271 22.9844 64.431 35.5407 64.431C48.097 64.431 58.2759 53.271 58.2759 39.5045C58.2759 25.7379 48.097 14.578 35.5407 14.578C22.9844 14.578 12.8055 25.7379 12.8055 39.5045Z" fill="#1E1E1E"/>
<path id="Ellipse 39" d="M33.4766 11.9167C33.3563 10.3097 34.5561 8.84552 36.1174 8.88086C39.9753 8.96818 43.7859 9.93121 47.3046 11.7222C51.6915 13.9551 55.4746 17.3985 58.2836 21.7153C61.0926 26.0322 62.8313 31.0747 63.3295 36.3493C63.7326 40.6172 63.3125 44.9187 62.1084 48.9778C61.6486 50.5278 59.9509 51.2414 58.5709 50.5779C57.3257 49.9792 56.7973 48.4684 57.2041 47.0677C58.151 43.8074 58.4782 40.3588 58.155 36.9368C57.7496 32.6444 56.3346 28.5409 54.0487 25.0278C51.7628 21.5148 48.6841 18.7126 45.1141 16.8955C42.3546 15.491 39.3746 14.7121 36.352 14.5938C34.8666 14.5357 33.5911 13.4476 33.4766 11.9167Z" fill="#1A85FF"/>
</g>
</svg>
