<svg width="71" height="78" viewBox="0 0 71 78" fill="none" xmlns="http://www.w3.org/2000/svg">
<g id="Group 18">
<path id="Ellipse 40" d="M63.478 38.8378C63.478 55.7543 50.9701 69.4679 35.5407 69.4679C20.1113 69.4679 7.60333 55.7543 7.60333 38.8378C7.60333 21.9212 20.1113 8.20768 35.5407 8.20768C50.9701 8.20768 63.478 21.9212 63.478 38.8378ZM12.8055 38.8378C12.8055 52.6043 22.9844 63.7643 35.5407 63.7643C48.097 63.7643 58.2759 52.6043 58.2759 38.8378C58.2759 25.0713 48.097 13.9113 35.5407 13.9113C22.9844 13.9113 12.8055 25.0713 12.8055 38.8378Z" fill="#1E1E1E"/>
<path id="Ellipse 39" d="M33.4766 11.2501C33.3563 9.64304 34.5561 8.17887 36.1174 8.2142C39.9697 8.30139 43.7748 9.26176 47.2894 11.0478C51.6725 13.2753 55.4538 16.7107 58.2642 21.0188C61.0746 25.327 62.818 30.3605 63.3243 35.6279C63.8306 40.8954 63.0823 46.2168 61.1527 51.0725C59.223 55.9282 56.1779 60.1524 52.3146 63.3325C48.4512 66.5127 43.9018 68.5401 39.1104 69.2168C34.319 69.8936 29.4494 69.1966 24.9771 67.1938C21.2316 65.5166 17.8719 62.9714 15.123 59.7444C14.2239 58.6888 14.4521 57.0486 15.5429 56.1066C16.7071 55.1013 18.3956 55.2804 19.3864 56.3774C21.5339 58.7549 24.1026 60.6412 26.9442 61.9137C30.5837 63.5435 34.5465 64.1107 38.4457 63.56C42.3449 63.0092 46.0472 61.3593 49.1911 58.7714C52.3351 56.1834 54.8132 52.7459 56.3835 48.7943C57.9538 44.8427 58.5627 40.5122 58.1508 36.2256C57.7388 31.939 56.32 27.8428 54.0329 24.3369C51.7458 20.831 48.6686 18.0352 45.1017 16.2226C42.3456 14.822 39.37 14.0453 36.352 13.9272C34.8666 13.869 33.5911 12.7809 33.4766 11.2501Z" fill="url(#paint0_linear_2_2686)"/>
</g>
<defs>
<linearGradient id="paint0_linear_2_2686" x1="62.0013" y1="29.011" x2="8.14845" y2="45.6488" gradientUnits="userSpaceOnUse">
<stop stop-color="#0077FF"/>
<stop offset="1" stop-color="#FA00FF" stop-opacity="0"/>
</linearGradient>
</defs>
</svg>
