<svg width="71" height="79" viewBox="0 0 71 79" fill="none" xmlns="http://www.w3.org/2000/svg">
<g id="Group 19">
<path id="Ellipse 40" d="M63.478 39.5045C63.478 56.421 50.9701 70.1346 35.5407 70.1346C20.1113 70.1346 7.60333 56.421 7.60333 39.5045C7.60333 22.5879 20.1113 8.87436 35.5407 8.87436C50.9701 8.87436 63.478 22.5879 63.478 39.5045ZM12.8055 39.5045C12.8055 53.271 22.9844 64.431 35.5407 64.431C48.097 64.431 58.2759 53.271 58.2759 39.5045C58.2759 25.7379 48.097 14.578 35.5407 14.578C22.9844 14.578 12.8055 25.7379 12.8055 39.5045Z" fill="#1E1E1E"/>
<path id="Ellipse 39" d="M33.4766 11.9167C33.3563 10.3097 34.5562 8.84551 36.1174 8.88083C41.3214 8.99857 46.4129 10.7093 50.8043 13.8499C55.9981 17.5645 59.9171 23.068 61.9438 29.4935C63.9706 35.9189 63.9899 42.9011 61.9987 49.3399C60.0074 55.7787 56.1189 61.3082 50.9457 65.0571C45.7725 68.8061 39.6086 70.5614 33.4253 70.0466C27.242 69.5318 21.3906 66.7761 16.793 62.2136C12.1955 57.6512 9.11315 51.5413 8.03161 44.8467C7.11293 39.1601 7.6822 33.3262 9.64475 28.011C10.2083 26.4847 11.9549 25.8923 13.2885 26.6619C14.4915 27.3562 14.9149 28.9145 14.4145 30.2942C12.8597 34.5811 12.4147 39.2752 13.1541 43.8519C14.0342 49.2999 16.5426 54.2721 20.284 57.985C24.0255 61.6979 28.7873 63.9404 33.8192 64.3594C38.8512 64.7784 43.8672 63.3499 48.0772 60.299C52.2871 57.2481 55.4515 52.7483 57.072 47.5085C58.6924 42.2686 58.6767 36.5866 57.0274 31.3576C55.378 26.1286 52.1887 21.6499 47.9621 18.627C44.4847 16.1401 40.4678 14.7549 36.3521 14.5938C34.8666 14.5356 33.5911 13.4476 33.4766 11.9167Z" fill="url(#paint0_linear_2_2694)"/>
</g>
<defs>
<linearGradient id="paint0_linear_2_2694" x1="62.0013" y1="29.6777" x2="8.14845" y2="46.3154" gradientUnits="userSpaceOnUse">
<stop stop-color="#0077FF"/>
<stop offset="1" stop-color="#66BC22" stop-opacity="0"/>
</linearGradient>
</defs>
</svg>
