<svg width="71" height="79" viewBox="0 0 71 79" fill="none" xmlns="http://www.w3.org/2000/svg">
<g id="Group 21">
<path id="Ellipse 40" d="M63.478 39.1711C63.478 56.0876 50.9701 69.8012 35.5407 69.8012C20.1113 69.8012 7.60333 56.0876 7.60333 39.1711C7.60333 22.2546 20.1113 8.54099 35.5407 8.54099C50.9701 8.54099 63.478 22.2546 63.478 39.1711ZM12.8055 39.1711C12.8055 52.9376 22.9844 64.0976 35.5407 64.0976C48.097 64.0976 58.2759 52.9376 58.2759 39.1711C58.2759 25.4046 48.097 14.2446 35.5407 14.2446C22.9844 14.2446 12.8055 25.4046 12.8055 39.1711Z" fill="#1E1E1E"/>
<path id="Ellipse 39" d="M33.4766 11.5834C33.3563 9.97635 34.5562 8.51215 36.1175 8.54746C42.0385 8.68136 47.7957 10.8773 52.5354 14.86C58.0359 19.4821 61.7732 26.1807 63.0213 33.6547C64.2694 41.1287 62.9393 48.8446 59.2892 55.3036C55.6391 61.7625 49.9297 66.5035 43.2699 68.6057C36.6102 70.7078 29.4755 70.021 23.2517 66.6787C17.0279 63.3364 12.1594 57.5771 9.59168 50.5197C7.02399 43.4622 6.94049 35.6102 9.35738 28.489C11.442 22.3468 15.2585 17.1264 20.2153 13.5609C21.5187 12.6235 23.2227 13.1525 23.8946 14.5717C24.546 15.9477 23.9783 17.645 22.7307 18.5779C18.8615 21.471 15.8817 25.6203 14.233 30.4781C12.2661 36.2733 12.3341 42.6631 14.4236 48.4065C16.5132 54.1498 20.4752 58.8366 25.54 61.5565C30.6049 64.2765 36.411 64.8354 41.8307 63.1247C47.2504 61.414 51.8966 57.5558 54.867 52.2996C57.8374 47.0433 58.9199 40.7642 57.9042 34.6819C56.8885 28.5997 53.8471 23.1484 49.3708 19.387C45.6051 16.2226 41.0499 14.4443 36.3521 14.2604C34.8666 14.2023 33.5911 13.1142 33.4766 11.5834Z" fill="url(#paint0_linear_2_2710)"/>
</g>
<defs>
<linearGradient id="paint0_linear_2_2710" x1="62.0013" y1="29.3443" x2="8.14845" y2="45.9821" gradientUnits="userSpaceOnUse">
<stop stop-color="#0077FF"/>
<stop offset="1" stop-color="#8FFF00" stop-opacity="0"/>
</linearGradient>
</defs>
</svg>
