<svg width="90" height="90" viewBox="0 0 90 90" fill="none" xmlns="http://www.w3.org/2000/svg">
<g id="&#240;&#159;&#166;&#134; icon &#34;materials science&#34;">
<path id="Vector" d="M0 0H89.7159V89.7159H0V0Z" fill="#141414"/>
<path id="Vector_2" d="M45.0292 3.92419C42.0854 3.92419 39.3361 5.26467 36.9926 7.45973C34.6494 9.65532 32.6435 12.713 30.9713 16.4168C30.6208 17.1927 30.2861 17.9991 29.9662 18.8309C29.0839 18.6919 28.2164 18.5782 27.3676 18.4934C26.3565 18.3926 25.37 18.3301 24.4115 18.3076C21.5343 18.2393 18.9047 18.5311 16.5999 19.2297C13.5271 20.1614 10.9916 21.8726 9.5197 24.4216C8.0478 26.9712 7.83403 30.0226 8.56349 33.1497C9.29331 36.2766 10.9382 39.5426 13.3099 42.8428C13.8075 43.535 14.3391 44.2292 14.9002 44.9233C14.3398 45.6167 13.8089 46.3099 13.312 47.0015C10.9401 50.3015 9.29524 53.5676 8.5656 56.6947C7.83595 59.8217 8.0499 62.8731 9.52181 65.4222C10.9937 67.9717 13.5292 69.6828 16.602 70.6141C19.6749 71.546 23.326 71.7543 27.3697 71.3504C28.2174 71.2656 29.0834 71.1524 29.9644 71.0136C30.2851 71.8468 30.6203 72.6548 30.9713 73.4321C32.6435 77.1364 34.6493 80.1936 36.9926 82.389C39.3359 84.5842 42.0855 85.925 45.0292 85.925C47.9726 85.925 50.7223 84.5842 53.0656 82.389C55.4087 80.1934 57.4147 77.1362 59.0869 73.4321C59.4379 72.6548 59.7731 71.8472 60.0937 71.014C60.9737 71.1524 61.839 71.2658 62.686 71.3504C66.7299 71.7541 70.3811 71.5458 73.4537 70.6141C76.5268 69.6826 79.0623 67.9714 80.5342 65.4222C82.0061 62.8726 82.2199 59.8216 81.4904 56.6947C80.7606 53.5677 79.1156 50.3017 76.7441 47.0015C76.247 46.31 75.716 45.6168 75.1557 44.9233C75.7167 44.2294 76.2485 43.5355 76.746 42.843C79.1177 39.5428 80.7626 36.2768 81.4922 33.1498C82.2218 30.0228 82.0079 26.9714 80.536 24.4218C79.0641 21.8728 76.5286 20.1615 73.4558 19.2299C71.1512 18.5312 68.5214 18.2395 65.6445 18.3076C64.6854 18.3301 63.6987 18.3926 62.6878 18.4934C61.8397 18.5782 60.9728 18.6919 60.0914 18.8307C59.7711 17.9991 59.4364 17.1929 59.0862 16.4168C57.414 12.7125 55.4082 9.65479 53.0649 7.45955C50.7216 5.26432 47.9719 3.92401 45.0285 3.92401L45.0292 3.92419ZM45.0292 7.19864C46.9926 7.19864 48.9178 8.06128 50.8267 9.84982C52.7354 11.638 54.5585 14.3449 56.1022 17.7643C56.3483 18.3092 56.5867 18.8742 56.8182 19.454C53.0654 20.2884 49.0907 21.5686 45.0281 23.2792C40.9664 21.569 36.9922 20.2891 33.2401 19.4547C33.4717 18.8747 33.7097 18.3094 33.9561 17.7641C35.4998 14.3445 37.3229 11.6377 39.2318 9.84912C41.1407 8.06093 43.0657 7.19829 45.0295 7.19829L45.0292 7.19864ZM23.3729 21.5772C23.689 21.574 24.0102 21.5761 24.3363 21.5835C25.2054 21.6028 26.1091 21.6588 27.0423 21.7522C27.6392 21.8118 28.2491 21.888 28.8689 21.9779C27.7149 25.6449 26.8363 29.7268 26.2857 34.1001C22.7728 36.7635 19.6765 39.5661 17.0776 42.3993C16.69 41.9078 16.3188 41.4181 15.9689 40.9313C13.7795 37.8848 12.347 34.9526 11.7524 32.4051C11.1581 29.8577 11.3739 27.7594 12.3556 26.059C13.3372 24.3586 15.047 23.1227 17.55 22.3638C19.1927 21.8656 21.1596 21.5972 23.3728 21.577L23.3729 21.5772ZM66.6833 21.5772C68.8964 21.5973 70.8633 21.8658 72.5061 22.364C75.0093 23.1227 76.7185 24.3586 77.7003 26.059C78.6819 27.7594 78.898 29.8579 78.3036 32.4051C77.7096 34.9524 76.2762 37.8848 74.0871 40.9313C73.7372 41.4181 73.3664 41.9078 72.9788 42.3997C70.3802 39.5668 67.2848 36.7649 63.773 34.1018C63.2227 29.7278 62.3431 25.6454 61.1891 21.9779C61.8081 21.888 62.4174 21.8115 63.0137 21.7522C63.947 21.6588 64.8506 21.6028 65.7199 21.5833C66.0458 21.576 66.367 21.5739 66.6833 21.5768V21.5772ZM57.936 22.5655C58.8069 25.2706 59.5279 28.2554 60.066 31.4494C58.3635 30.2987 56.5832 29.1834 54.7311 28.114C52.8798 27.0451 51.0251 26.0616 49.1782 25.1627C52.2131 24.0316 55.1581 23.1639 57.936 22.5658V22.5655ZM32.1222 22.566C34.8995 23.1642 37.8442 24.0319 40.8782 25.1629C39.0313 26.0618 37.1766 27.0453 35.3253 28.114C33.4739 29.1829 31.6946 30.2977 29.9925 31.4475C30.5304 28.2544 31.2513 25.2704 32.1222 22.566ZM45.0281 26.852C47.6928 28.0275 50.3976 29.3935 53.0938 30.9502C55.791 32.5076 58.3278 34.1674 60.6785 35.8881C60.9932 38.7841 61.1624 41.8104 61.1624 44.9245C61.1624 48.0369 60.9937 51.062 60.6792 53.9567C58.3285 55.6771 55.7921 57.3365 53.0957 58.8936C50.399 60.4505 47.6935 61.8171 45.0283 62.9925C42.3627 61.8171 39.6572 60.4505 36.9605 58.8936C34.2646 57.337 31.7293 55.6782 29.3795 53.9585C29.065 51.0632 28.8959 48.0376 28.8959 44.9244C28.8959 41.8097 29.065 38.783 29.3799 35.8867C31.7302 34.1665 34.266 32.5069 36.9624 30.9502C39.6588 29.3937 42.3636 28.0275 45.0281 26.8524V26.852ZM45.2496 31.7787L35.8746 37.5641L45.2496 43.3501L54.6246 37.5641L45.2496 31.7785V31.7787ZM25.8415 38.636C25.6966 40.6858 25.6213 42.7854 25.6213 44.924C25.6213 47.0614 25.6966 49.1596 25.8417 51.2083C23.3447 49.1459 21.1206 47.0292 19.2134 44.9224C21.1206 42.8159 23.3445 40.6988 25.8415 38.636ZM64.217 38.6378C66.7127 40.7002 68.9363 42.8164 70.8428 44.9226C68.9363 47.0288 66.7127 49.145 64.217 51.2069C64.3617 49.1589 64.4371 47.0611 64.4371 44.9242C64.4371 42.7857 64.3617 40.6872 64.2168 38.6378H64.217ZM33.7626 40.1086V51.533L43.6086 57.6093V46.1855L33.7626 40.1086ZM56.7274 40.1146L46.8838 46.1897V57.6081L56.7276 51.533V40.1146H56.7274ZM17.0772 47.446C19.6765 50.2794 22.7724 53.0813 26.285 55.7448C26.8352 60.1175 27.7142 64.1991 28.8679 67.866C28.2493 67.9554 27.6402 68.032 27.0444 68.0916C23.3114 68.4643 20.0552 68.2387 17.5521 67.48C15.0488 66.7213 13.3396 65.4849 12.3578 63.7845C11.3762 62.0839 11.1602 59.9856 11.7545 57.4383C12.3489 54.8911 13.7816 51.9586 15.971 48.9122C16.3202 48.4259 16.6905 47.9368 17.0772 47.446ZM72.9786 47.4466C73.3654 47.9372 73.7356 48.4261 74.0849 48.9122C76.2741 51.9585 77.7068 54.8909 78.3011 57.4381C78.8955 59.9854 78.68 62.0837 77.6984 63.7843C76.7164 65.4847 75.0069 66.7211 72.5036 67.4798C70.0007 68.2386 66.745 68.4641 63.0119 68.0914C62.4167 68.0318 61.8085 67.9556 61.1905 67.8662C62.3443 64.1984 63.2231 60.116 63.7733 55.7423C67.2848 53.0796 70.3804 50.2784 72.9788 47.4462L72.9786 47.4466ZM60.0667 58.3952C59.5288 61.5889 58.8079 64.5737 57.937 67.2787C55.159 66.6806 52.2136 65.8124 49.1785 64.6815C51.0258 63.7822 52.8811 62.7985 54.7332 61.7293C56.5848 60.6604 58.3646 59.5452 60.0671 58.3952H60.0667ZM29.9918 58.397C31.6932 59.5465 33.4721 60.6609 35.3228 61.7293C37.175 62.7985 39.0306 63.7822 40.8775 64.6815C37.8433 65.8122 34.8988 66.6803 32.1209 67.2783C31.2501 64.5739 30.5297 61.5898 29.9918 58.397ZM45.1261 58.5459L45.2452 58.6195L45.3638 58.5459H45.1262H45.1261ZM45.0279 66.5655C49.0914 68.2757 53.0663 69.5557 56.8196 70.39C56.5876 70.9718 56.349 71.5377 56.1022 72.0844C54.5585 75.5036 52.7354 78.2104 50.8265 79.9989C48.9178 81.7872 46.9926 82.6501 45.0292 82.6501C43.0656 82.6501 41.1404 81.7872 39.2316 79.9989C37.3229 78.2105 35.4998 75.5036 33.9561 72.0843C33.7094 71.5376 33.4707 70.9712 33.2385 70.3898C36.9912 69.5554 40.9657 68.2755 45.0283 66.5655H45.0279Z" fill="white"/>
</g>
</svg>
