<svg width="90" height="90" viewBox="0 0 90 90" fill="none" xmlns="http://www.w3.org/2000/svg">
<g id="&#240;&#159;&#166;&#134; icon &#34;circuitry&#34;">
<path id="Vector" d="M0 0H89.7159V89.7159H0V0Z" fill="#141414"/>
<path id="Vector_2" d="M72.4947 3.3985V20.6828L64.4139 28.7637L58.4215 22.771L57.2638 23.9292L32.4658 48.7266L52.3562 68.6165L43.1087 77.8638L43.109 86.6794H46.3835V79.2204L54.6717 70.9322L58.4215 74.682L84.3764 48.7268L73.8339 38.1844L85.6524 26.3654V3.3985H82.378V25.0092L71.5183 35.8688L66.729 31.0794L75.7689 22.0394V3.3985H72.4947ZM3.39238 5.30987V8.58432H36.0909L43.8453 16.3388C43.3967 17.1086 43.1388 18.0027 43.1388 18.9579C43.1388 21.8355 45.4714 24.1684 48.3486 24.1684C51.2258 24.1684 53.5585 21.8355 53.5585 18.9581C53.5585 16.0809 51.2258 13.7486 48.3486 13.7486C47.6227 13.7486 46.9314 13.8975 46.3034 14.166L37.4475 5.31004H3.39238V5.30987ZM3.39238 15.0311V18.3061L26.3691 18.3066L34.1236 26.0611C33.675 26.8306 33.4165 27.725 33.4165 28.6802C33.4165 31.5574 35.7492 33.89 38.6264 33.89C41.5036 33.89 43.8364 31.5574 43.8364 28.6802C43.8364 25.8029 41.5038 23.4702 38.6266 23.4702C37.9004 23.4702 37.2093 23.6191 36.5813 23.8875L27.7254 15.0316H3.39273L3.39238 15.0311ZM18.0038 24.753L3.39255 24.7533V28.0283L16.6477 28.0278L24.4022 35.7833C23.9536 36.5526 23.6955 37.4473 23.6955 38.4022C23.6955 41.2795 26.0281 43.6123 28.9053 43.6123C31.7826 43.6123 34.1148 41.2795 34.1148 38.4021C34.1148 35.5249 31.7826 33.1919 28.9053 33.1919C28.179 33.1919 27.4878 33.3408 26.8596 33.6095L18.0038 24.753ZM58.4215 27.4024L79.7455 48.7269L58.4215 70.0502L37.0972 48.7269L58.4215 27.4028V27.4024ZM58.2018 32.2015L41.6299 48.7734L58.2785 65.4225L60.5942 63.1071L46.2612 48.7736L60.5176 34.5168L58.2018 32.2015ZM3.39273 35.979V44.9519L31.4517 73.0109V86.6794H34.7267V67.3125L3.39273 35.979ZM64.1104 37.4504L61.7953 39.7659L70.816 48.7869L61.7445 57.8583L64.0607 60.1738L75.4472 48.7869L64.111 37.4502L64.1104 37.4504ZM58.8659 43.2609C55.8082 43.2609 53.3301 45.7399 53.3301 48.797C53.3301 51.8539 55.8084 54.3324 58.8656 54.3324C61.9233 54.3324 64.4015 51.8539 64.4015 48.797C64.4015 45.7393 61.9232 43.2607 58.8657 43.2607L58.8659 43.2609ZM3.39238 51.7531V60.7259L20.0189 77.3514V86.6792H23.2935V71.6536L3.39273 51.7531H3.39238ZM78.2803 64.5716C75.4031 64.5716 73.0704 66.9042 73.0704 69.7814C73.0704 72.6587 75.4031 74.9918 78.2803 74.9918C78.9801 74.9918 79.6474 74.8527 80.2568 74.6024L86.6736 81.0184V76.3877L82.7482 72.4626C83.2192 71.6793 83.4906 70.7622 83.4906 69.7816C83.4906 66.9044 81.1577 64.5718 78.2803 64.5718V64.5716ZM3.39238 67.6707V76.644L8.87591 82.1268L8.87556 86.6796H12.1502L12.1512 76.4295L3.39238 67.6707ZM68.5594 74.2935C65.6822 74.2935 63.3494 76.6261 63.3494 79.5035C63.3494 82.3807 65.6817 84.713 68.5592 84.713C69.1748 84.713 69.7652 84.6058 70.3133 84.4099L72.5833 86.679H77.2146L72.9075 82.3723C73.4514 81.5493 73.7691 80.5636 73.7691 79.5033C73.7691 76.6258 71.4365 74.2932 68.5592 74.2932L68.5594 74.2935Z" fill="white"/>
</g>
</svg>
