<svg width="22" height="34" viewBox="0 0 22 34" fill="none" xmlns="http://www.w3.org/2000/svg">
<g id="Group 27">
<path id="path16" d="M16.0978 12.6823C19.4799 14.4598 21.7959 18.0809 21.7959 22.2593C21.7959 28.195 17.1216 33.0072 11.356 33.0072C5.59033 33.0072 0.916733 28.195 0.916733 22.2593C0.916733 18.1791 3.12505 14.6299 6.37896 12.8093C7.858 11.9823 9.55346 11.512 11.356 11.512C13.0632 11.512 14.6751 11.9339 16.0978 12.6823Z" fill="#FFCF68"/>
<path id="path18" d="M11.356 32.5672C8.6816 32.5672 6.16744 31.495 4.27646 29.548C2.38547 27.6012 1.34409 25.0126 1.34409 22.2593C1.34409 18.4768 3.35155 15.0039 6.58302 13.1959C8.03851 12.3821 9.68897 11.9518 11.356 11.9518C12.9579 11.9518 14.4879 12.3294 15.9034 13.074C17.5221 13.9248 18.8878 15.2145 19.8527 16.8037C20.8444 18.4368 21.3685 20.3233 21.3685 22.2593C21.3685 25.0126 20.327 27.6012 18.4358 29.548C16.5446 31.495 14.0304 32.5672 11.356 32.5672Z" fill="#FDC77B"/>
<path id="path20" d="M11.356 31.3102C9.00782 31.3102 6.80016 30.3687 5.13985 28.6592C3.47948 26.9498 2.56506 24.6768 2.56506 22.2593C2.56506 18.938 4.32765 15.8888 7.1651 14.3013C8.44312 13.5865 9.89233 13.2088 11.356 13.2088C12.7626 13.2088 14.106 13.5403 15.3489 14.1942C16.7703 14.9411 17.9693 16.0735 18.8166 17.469C19.6873 18.9029 20.1475 20.5593 20.1475 22.2593C20.1475 24.6768 19.233 26.9496 17.5725 28.6592C15.912 30.3687 13.7043 31.3102 11.356 31.3102Z" stroke="#CA9C5A" stroke-width="2.61099" stroke-miterlimit="10"/>
<path id="path22" d="M11.3561 28.3966C9.76385 28.3966 8.26691 27.7582 7.14104 26.5991C6.01523 25.4398 5.39516 23.8987 5.39516 22.2593C5.39516 20.0074 6.59036 17.9396 8.51435 16.8632C9.38095 16.3785 10.3636 16.1225 11.3561 16.1225C12.3099 16.1225 13.2209 16.3472 14.0636 16.7905C15.0274 17.2972 15.8405 18.0649 16.415 19.0111C17.0054 19.9835 17.3176 21.1068 17.3176 22.2593C17.3176 23.8987 16.6974 25.4398 15.5715 26.5991C14.4455 27.7582 12.9485 28.3966 11.3561 28.3966V28.3966Z" stroke="#FDC77B" stroke-width="1.865" stroke-miterlimit="10"/>
<path id="path24" d="M11.3561 29.7325C9.41719 29.7325 7.5944 28.9552 6.22347 27.5436C4.85254 26.132 4.09758 24.2555 4.09758 22.2593C4.09758 19.517 5.55293 16.9993 7.89573 15.6884C8.95095 15.0984 10.1475 14.7865 11.3561 14.7865C12.5175 14.7865 13.6267 15.0603 14.6528 15.6C15.8264 16.217 16.8165 17.152 17.5161 18.3041C18.235 19.4881 18.615 20.8557 18.615 22.2593C18.615 24.2553 17.86 26.132 16.4889 27.5436C15.1178 28.9552 13.2951 29.7325 11.3561 29.7325V29.7325Z" stroke="#CA9C5A" stroke-width="2.61099" stroke-miterlimit="10"/>
<path id="path26" d="M14.5435 11.0457V10.6485C14.5435 10.5335 14.4529 10.4403 14.3412 10.4403H7.99634C7.88457 10.4403 7.79401 10.5335 7.79401 10.6485V11.0457C7.79401 11.1613 7.88457 11.2546 7.99634 11.2546H14.3412C14.4529 11.2546 14.5435 11.1613 14.5435 11.0457ZM15.5898 10.7485C15.8556 11.3587 16.0032 12.0157 16.0267 12.6823C14.6041 11.9339 12.9922 11.512 11.2849 11.512C9.48242 11.512 7.78696 11.9824 6.30792 12.8094C6.31556 12.0992 6.4655 11.3975 6.74779 10.7485L6.87954 10.4463C7.02656 10.1078 7.33235 9.87117 7.68928 9.81975L8.07803 9.76345C10.1281 9.46796 12.2094 9.46796 14.2601 9.76345L14.6483 9.81975C15.0052 9.87117 15.3111 10.1078 15.458 10.4463L15.5898 10.7485Z" fill="#FDC77B"/>
<path id="path28" d="M17.7957 0.186934L14.176 10.5935H12.1647L15.7739 0.195427V0.186934H17.7957Z" fill="#FF6E77"/>
<path id="path30" d="M15.7739 0.186934V0.195427L12.1647 10.5935H10.1787L13.7878 0.195427V0.186934H15.7739Z" fill="#77DFE1"/>
<path id="path32" d="M13.7878 0.186934V0.195427L10.1787 10.5935H8.14973L11.7694 0.186934H13.7878Z" fill="#AC748C"/>
<path id="path34" d="M21.1013 22.2596C21.1013 25.649 18.4324 28.3966 15.1402 28.3966C11.8479 28.3966 9.17897 25.649 9.17897 22.2596C9.17897 18.8701 11.8479 16.1225 15.1402 16.1225C18.4324 16.1225 21.1013 18.8701 21.1013 22.2596Z" fill="#6A4000"/>
<path id="path36" d="M4.52943 0.186934L8.14918 10.5935H10.1605L6.55133 0.195427V0.186934H4.52943Z" fill="#AC748C"/>
<path id="path38" d="M6.55133 0.186934V0.195427L10.1605 10.5935H12.1464L8.53732 0.195427V0.186934H6.55133Z" fill="#77DFE1"/>
<path id="path40" d="M8.53732 0.186934V0.195427L12.1464 10.5935H14.1754L10.5556 0.186934H8.53732Z" fill="#FF6E77"/>
<path id="path42" d="M20.7132 22.2596C20.7132 25.4282 18.218 27.9969 15.1403 27.9969C12.0624 27.9969 9.56728 25.4282 9.56728 22.2596C9.56728 19.0908 12.0624 16.522 15.1403 16.522C18.218 16.522 20.7132 19.0908 20.7132 22.2596Z" fill="#FFCF68"/>
<path id="path44" d="M19.3838 22.2596C19.3838 24.6724 17.4839 26.6284 15.1402 26.6284C12.7965 26.6284 10.8965 24.6724 10.8965 22.2596C10.8965 19.8466 12.7965 17.8906 15.1402 17.8906C17.4839 17.8906 19.3838 19.8466 19.3838 22.2596Z" fill="#CA9C5A"/>
<path id="path46" d="M16.9432 25.0476H13.3372V24.0766H14.4763V21.1373H13.3372V20.2297C13.5114 20.2297 13.6782 20.219 13.8378 20.198C13.9974 20.1767 14.1304 20.1401 14.2369 20.0877C14.3626 20.0256 14.4569 19.9446 14.5198 19.8449C14.5827 19.7454 14.6189 19.6208 14.6287 19.4714H15.8295V24.0766H16.9432V25.0476Z" fill="#FFCF68"/>
<path id="path48" d="M10.1322 20.3485C10.1322 20.3489 10.1324 20.3492 10.1324 20.3497C10.132 20.3763 10.1305 20.7578 10.2232 21.0111C10.3194 21.2739 10.2376 21.6818 10.2376 21.6818C10.2376 21.6818 9.97614 21.375 9.95764 21.1506C9.93491 20.8806 10.126 20.3645 10.1322 20.3485Z" fill="#CA9C5A"/>
<path id="path50" d="M10.1944 20.5711C10.2685 20.7374 10.3445 20.8705 10.4083 21.0688C10.4456 21.1846 10.3905 21.481 10.3064 21.6037C10.279 21.6598 10.2376 21.6818 10.2376 21.6818C10.2376 21.6818 10.3193 21.2739 10.2231 21.0111C10.1305 20.7578 10.1319 20.3763 10.1323 20.3497C10.135 20.3642 10.156 20.4843 10.1944 20.5711Z" fill="#6A4000"/>
<path id="path52" d="M11.0044 20.7175C11.0041 20.7179 11.0041 20.7182 11.0037 20.7185C10.9864 20.7381 10.7406 21.0237 10.6477 21.2771C10.5514 21.5397 10.2284 21.7905 10.2284 21.7905C10.2284 21.7905 10.2287 21.3824 10.3588 21.2013C10.5149 20.983 10.9894 20.7252 11.0044 20.7175Z" fill="#CA9C5A"/>
<path id="path54" d="M10.9083 20.927C10.8573 21.1022 10.829 21.2538 10.7498 21.4463C10.7036 21.5586 10.4721 21.7436 10.3302 21.7787C10.2737 21.8021 10.2284 21.7905 10.2284 21.7905C10.2284 21.7905 10.5514 21.5397 10.6477 21.2771C10.7406 21.0237 10.9864 20.7381 11.0037 20.7185C10.9964 20.7312 10.9351 20.8356 10.9083 20.927Z" fill="#6A4000"/>
<path id="path56" d="M9.90144 21.283C9.90148 21.2833 9.90166 21.2837 9.90173 21.284C9.90513 21.3104 9.95794 21.688 10.0856 21.9248C10.2181 22.1703 10.1953 22.5861 10.1953 22.5861C10.1953 22.5861 9.89296 22.322 9.84284 22.1028C9.78191 21.8391 9.89762 21.2997 9.90144 21.283Z" fill="#CA9C5A"/>
<path id="path58" d="M9.9947 21.4937C10.0915 21.6471 10.1857 21.7674 10.277 21.9539C10.3304 22.0629 10.318 22.3643 10.2523 22.4983C10.2331 22.5579 10.1953 22.5861 10.1953 22.5861C10.1953 22.5861 10.2181 22.1703 10.0856 21.9248C9.95795 21.688 9.90514 21.3104 9.90173 21.284C9.90651 21.2981 9.94428 21.4139 9.9947 21.4937Z" fill="#6A4000"/>
<path id="path60" d="M10.8167 21.5165C10.8164 21.5168 10.8165 21.5172 10.8162 21.5175C10.8019 21.5396 10.5994 21.859 10.5435 22.1237C10.4856 22.3981 10.2018 22.6949 10.2018 22.6949C10.2018 22.6949 10.144 22.2912 10.2469 22.0924C10.3704 21.8529 10.8031 21.5264 10.8167 21.5165Z" fill="#CA9C5A"/>
<path id="path62" d="M10.7516 21.7383C10.726 21.9191 10.7196 22.0736 10.6686 22.2758C10.6388 22.3937 10.4361 22.6119 10.3008 22.6678C10.2483 22.6996 10.2018 22.6949 10.2018 22.6949C10.2018 22.6949 10.4856 22.3982 10.5435 22.1237C10.5995 21.8591 10.802 21.5397 10.8162 21.5175C10.8109 21.5313 10.765 21.6439 10.7516 21.7383Z" fill="#6A4000"/>
<path id="path64" d="M9.80637 22.2975C9.80649 22.2978 9.80672 22.298 9.80684 22.2984C9.81616 22.3233 9.95243 22.6779 10.13 22.8779C10.314 23.085 10.3854 23.495 10.3854 23.495C10.3854 23.495 10.0319 23.3102 9.93376 23.1089C9.8152 22.8669 9.80637 22.3146 9.80637 22.2975Z" fill="#CA9C5A"/>
<path id="path66" d="M9.94447 22.4802C10.0732 22.6063 10.1918 22.7009 10.3226 22.8606C10.3991 22.9537 10.4549 23.25 10.421 23.3961C10.4158 23.4587 10.3853 23.495 10.3853 23.495C10.3853 23.495 10.314 23.085 10.1299 22.8779C9.95239 22.6779 9.81613 22.3233 9.80681 22.2984C9.81469 22.3109 9.87739 22.4145 9.94447 22.4802Z" fill="#6A4000"/>
<path id="path68" d="M10.7493 22.3063C10.7491 22.3067 10.7492 22.3071 10.7491 22.3074C10.7401 22.3324 10.615 22.6914 10.62 22.9622C10.6255 23.2429 10.4162 23.5994 10.4162 23.5994C10.4162 23.5994 10.2692 23.2203 10.3246 23.0025C10.3908 22.74 10.7383 22.3193 10.7493 22.3063Z" fill="#CA9C5A"/>
<path id="path70" d="M10.7358 22.5376C10.7516 22.7197 10.7801 22.8713 10.7759 23.0803C10.7735 23.2022 10.6255 23.4626 10.5064 23.5494C10.4624 23.5928 10.4162 23.5994 10.4162 23.5994C10.4162 23.5994 10.6255 23.2429 10.6201 22.9622C10.615 22.6914 10.7401 22.3324 10.7491 22.3074C10.7469 22.3222 10.7276 22.4426 10.7358 22.5376Z" fill="#6A4000"/>
<path id="path72" d="M9.91748 23.2487C9.91766 23.2492 9.91797 23.2492 9.91814 23.2497C9.92996 23.2733 10.1033 23.6104 10.301 23.7891C10.5061 23.9742 10.6208 24.3736 10.6208 24.3736C10.6208 24.3736 10.2497 24.2299 10.1307 24.041C9.98706 23.8138 9.91933 23.2659 9.91748 23.2487Z" fill="#CA9C5A"/>
<path id="path74" d="M10.0744 23.4149C10.2158 23.5257 10.3438 23.6062 10.4908 23.7501C10.5768 23.834 10.6638 24.1223 10.6458 24.2714C10.6473 24.334 10.6208 24.3736 10.6208 24.3736C10.6208 24.3736 10.5062 23.9742 10.3011 23.7891C10.1033 23.6104 9.93002 23.2733 9.9182 23.2497C9.92727 23.2611 10.0007 23.3571 10.0744 23.4149Z" fill="#6A4000"/>
<path id="path76" d="M10.8557 23.1509C10.8555 23.1514 10.8557 23.1517 10.8556 23.1522C10.8493 23.178 10.7633 23.5489 10.7973 23.8175C10.8326 24.0959 10.6626 24.474 10.6626 24.474C10.6626 24.474 10.476 24.1138 10.5078 23.891C10.5456 23.6227 10.8461 23.1651 10.8557 23.1509Z" fill="#CA9C5A"/>
<path id="path78" d="M10.867 23.3824C10.9021 23.5617 10.9466 23.709 10.9648 23.9172C10.9754 24.0386 10.856 24.3143 10.7469 24.414C10.7078 24.4622 10.6626 24.474 10.6626 24.474C10.6626 24.474 10.8326 24.0959 10.7973 23.8175C10.7633 23.5489 10.8493 23.178 10.8556 23.1522C10.855 23.167 10.8488 23.2888 10.867 23.3824Z" fill="#6A4000"/>
<path id="path80" d="M10.1631 24.1817C10.1633 24.1822 10.1637 24.1822 10.1639 24.1825C10.1798 24.2036 10.4108 24.5018 10.6373 24.6395C10.8722 24.7823 11.0568 25.1528 11.0568 25.1528C11.0568 25.1528 10.6663 25.0825 10.5153 24.9196C10.3332 24.7238 10.168 24.1982 10.1631 24.1817Z" fill="#CA9C5A"/>
<path id="path82" d="M10.3471 24.3151C10.506 24.397 10.6463 24.4516 10.8167 24.5651C10.9163 24.6312 11.0537 24.8977 11.0629 25.0476C11.0756 25.1089 11.0568 25.1528 11.0568 25.1528C11.0568 25.1528 10.8722 24.7823 10.6373 24.6395C10.4108 24.5018 10.1798 24.2036 10.1639 24.1825C10.1749 24.1921 10.2643 24.2723 10.3471 24.3151Z" fill="#6A4000"/>
<path id="path84" d="M11.0674 23.9067C11.0673 23.9072 11.0675 23.9073 11.0675 23.9078C11.066 23.9344 11.0482 24.3154 11.1299 24.5728C11.2148 24.8397 11.1158 25.2434 11.1158 25.2434C11.1158 25.2434 10.8676 24.9251 10.8587 24.7002C10.8476 24.4293 11.0605 23.9224 11.0674 23.9067Z" fill="#CA9C5A"/>
<path id="path86" d="M11.1202 24.1319C11.187 24.3013 11.2573 24.4378 11.3126 24.6388C11.345 24.756 11.2772 25.0497 11.188 25.1685C11.1582 25.2232 11.1159 25.2434 11.1159 25.2434C11.1159 25.2434 11.2149 24.8397 11.13 24.5728C11.0483 24.3154 11.0661 23.9344 11.0675 23.9078C11.0696 23.9224 11.0854 24.0435 11.1202 24.1319Z" fill="#6A4000"/>
<path id="path88" d="M10.5458 25.0374C10.5461 25.0377 10.5464 25.0377 10.5467 25.0381C10.5659 25.0558 10.8441 25.3079 11.0905 25.4026C11.346 25.5009 11.5908 25.8323 11.5908 25.8323C11.5908 25.8323 11.1944 25.8336 11.018 25.7003C10.8054 25.5403 10.5534 25.0528 10.5458 25.0374Z" fill="#CA9C5A"/>
<path id="path90" d="M10.7497 25.1355C10.92 25.1875 11.0674 25.216 11.2545 25.2969C11.3637 25.344 11.5444 25.5816 11.579 25.7276C11.6019 25.7858 11.5908 25.8323 11.5908 25.8323C11.5908 25.8323 11.3461 25.5009 11.0905 25.4026C10.8441 25.3079 10.5659 25.0558 10.5467 25.0381C10.5592 25.0455 10.6608 25.1083 10.7497 25.1355Z" fill="#6A4000"/>
<path id="path92" d="M11.3893 24.6035C11.3893 24.604 11.3896 24.6042 11.3896 24.6046C11.3926 24.631 11.44 25.0094 11.5643 25.2479C11.6932 25.4955 11.6644 25.9108 11.6644 25.9108C11.6644 25.9108 11.3659 25.6422 11.3189 25.4223C11.2618 25.1577 11.3853 24.6202 11.3893 24.6035Z" fill="#CA9C5A"/>
<path id="path94" d="M11.4796 24.8156C11.5742 24.9704 11.6667 25.0921 11.7553 25.28C11.8071 25.3898 11.7904 25.6911 11.7227 25.8241C11.7027 25.8834 11.6645 25.9108 11.6645 25.9108C11.6645 25.9108 11.6933 25.4955 11.5643 25.2479C11.44 25.0094 11.3927 24.631 11.3896 24.6046C11.3942 24.6186 11.4303 24.7349 11.4796 24.8156Z" fill="#6A4000"/>
<path id="path96" d="M11.1721 25.8916C11.1725 25.8918 11.1728 25.8918 11.1732 25.8919C11.196 25.9044 11.5255 26.0789 11.7869 26.1091C12.058 26.1402 12.3739 26.4003 12.3739 26.4003C12.3739 26.4003 11.9897 26.5008 11.7871 26.4159C11.543 26.3141 11.1832 25.9045 11.1721 25.8916Z" fill="#CA9C5A"/>
<path id="path98" d="M11.3931 25.9355C11.5706 25.9432 11.7203 25.9339 11.9209 25.9654C12.0381 25.9838 12.2695 26.1688 12.3375 26.3018C12.3736 26.3522 12.3739 26.4004 12.3739 26.4004C12.3739 26.4004 12.058 26.1403 11.7869 26.1091C11.5255 26.0789 11.196 25.9044 11.1732 25.8919C11.1871 25.896 11.3005 25.9314 11.3931 25.9355Z" fill="#6A4000"/>
<path id="path100" d="M11.8875 25.2591C11.8876 25.2594 11.8879 25.2596 11.888 25.2601C11.8972 25.2849 12.0327 25.64 12.2098 25.8402C12.3934 26.0479 12.4639 26.458 12.4639 26.458C12.4639 26.458 12.1108 26.2723 12.0131 26.0709C11.895 25.8286 11.8875 25.2763 11.8875 25.2591Z" fill="#CA9C5A"/>
<path id="path102" d="M12.0252 25.4423C12.1536 25.5686 12.2721 25.6635 12.4025 25.8235C12.4787 25.9168 12.5338 26.2132 12.4997 26.3593C12.4944 26.4217 12.4638 26.458 12.4638 26.458C12.4638 26.458 12.3933 26.0479 12.2097 25.8402C12.0327 25.64 11.8972 25.2849 11.888 25.2601C11.8958 25.2727 11.9583 25.3763 12.0252 25.4423Z" fill="#6A4000"/>
<path id="path104" d="M11.8551 26.5034C11.8555 26.5037 11.8558 26.5035 11.8561 26.5038C11.8794 26.5153 12.2149 26.6775 12.4772 26.6978C12.7492 26.7186 13.0741 26.9668 13.0741 26.9668C13.0741 26.9668 12.6936 27.0817 12.4881 27.0044C12.2406 26.9118 11.8666 26.5159 11.8551 26.5034Z" fill="#CA9C5A"/>
<path id="path106" d="M12.0775 26.5391C12.2551 26.54 12.4044 26.5252 12.606 26.5492C12.7237 26.5631 12.9615 26.7394 13.0342 26.8696C13.0721 26.9188 13.0741 26.9668 13.0741 26.9668C13.0741 26.9668 12.7492 26.7186 12.4772 26.6978C12.2149 26.6775 11.8794 26.5153 11.8562 26.5038C11.8702 26.5073 11.9849 26.5384 12.0775 26.5391Z" fill="#6A4000"/>
<path id="path108" d="M12.5476 25.8446C12.5477 25.8449 12.548 25.845 12.5482 25.8455C12.5582 25.8699 12.7062 26.2198 12.8901 26.4132C13.0811 26.6139 13.166 27.021 13.166 27.021C13.166 27.021 12.8066 26.8488 12.7018 26.6512C12.5753 26.4134 12.5482 25.8617 12.5476 25.8446Z" fill="#CA9C5A"/>
<path id="path110" d="M12.6917 26.0224C12.8246 26.1438 12.9462 26.2342 13.0823 26.3893C13.1618 26.4798 13.2273 26.7738 13.1984 26.921C13.1952 26.9837 13.166 27.021 13.166 27.021C13.166 27.021 13.0811 26.6139 12.8902 26.4132C12.7063 26.2198 12.5583 25.8699 12.5482 25.8455C12.5564 25.8576 12.6226 25.959 12.6917 26.0224Z" fill="#6A4000"/>
<path id="path112" d="M12.7327 27.0834C12.7332 27.0834 12.7333 27.0833 12.7338 27.0834C12.7593 27.088 13.1247 27.1511 13.3827 27.0977C13.65 27.0424 14.0279 27.1912 14.0279 27.1912C14.0279 27.1912 13.6917 27.4074 13.4736 27.3901C13.211 27.3697 12.7471 27.0923 12.7327 27.0834Z" fill="#CA9C5A"/>
<path id="path114" d="M12.9562 27.0559C13.1275 27.0077 13.2674 26.9519 13.4678 26.919C13.5848 26.8996 13.86 27.0036 13.9641 27.1088C14.0134 27.1456 14.0279 27.1912 14.0279 27.1912C14.0279 27.1912 13.65 27.0424 13.3827 27.0977C13.1247 27.1511 12.7593 27.088 12.7338 27.0834C12.7483 27.083 12.8669 27.0811 12.9562 27.0559Z" fill="#6A4000"/>
<path id="path116" d="M13.7629 27.4535C13.7634 27.4535 13.7635 27.4534 13.764 27.4534C13.7898 27.4535 14.1604 27.4526 14.406 27.3557C14.6606 27.255 15.0573 27.3365 15.0573 27.3365C15.0573 27.3365 14.761 27.6077 14.5432 27.6281C14.2809 27.6532 13.7785 27.4596 13.7629 27.4535Z" fill="#CA9C5A"/>
<path id="path118" d="M13.9788 27.3879C14.1398 27.3107 14.2685 27.2316 14.4609 27.1646C14.573 27.1255 14.8612 27.1803 14.981 27.2662C15.0356 27.294 15.0573 27.3365 15.0573 27.3365C15.0573 27.3365 14.6606 27.255 14.406 27.3557C14.1604 27.4526 13.7898 27.4535 13.764 27.4534C13.7782 27.4504 13.8948 27.4282 13.9788 27.3879Z" fill="#6A4000"/>
<path id="path120" d="M13.2271 26.2566C13.2274 26.2571 13.2277 26.2571 13.2278 26.2574C13.244 26.2782 13.478 26.574 13.706 26.7092C13.9423 26.8495 14.1307 27.2179 14.1307 27.2179C14.1307 27.2179 13.7396 27.1519 13.5868 26.9905C13.4027 26.7968 13.2321 26.2731 13.2271 26.2566Z" fill="#CA9C5A"/>
<path id="path122" d="M13.4125 26.388C13.5721 26.4681 13.7129 26.5212 13.8846 26.6327C13.9848 26.6979 14.1249 26.9629 14.1356 27.1127C14.149 27.1739 14.1307 27.2179 14.1307 27.2179C14.1307 27.2179 13.9422 26.8495 13.7059 26.7092C13.478 26.574 13.244 26.2782 13.2278 26.2574C13.239 26.267 13.3292 26.3461 13.4125 26.388Z" fill="#6A4000"/>
<path id="path124" d="M14.1011 26.6463C14.1014 26.6466 14.1017 26.6466 14.102 26.6469C14.119 26.6621 14.3646 26.8804 14.581 26.9612C14.8056 27.0451 15.0226 27.3332 15.0226 27.3332C15.0226 27.3332 14.6756 27.3375 14.5201 27.2226C14.3327 27.0844 14.108 26.6596 14.1011 26.6463Z" fill="#CA9C5A"/>
<path id="path126" d="M14.2804 26.7304C14.43 26.7745 14.5594 26.798 14.7237 26.8674C14.8198 26.9076 14.9799 27.1141 15.0113 27.2417C15.032 27.2923 15.0226 27.3332 15.0226 27.3332C15.0226 27.3332 14.8056 27.0451 14.581 26.9613C14.3646 26.8804 14.119 26.6622 14.102 26.6469C14.113 26.6534 14.2025 26.7075 14.2804 26.7304Z" fill="#6A4000"/>
<path id="path128" d="M14.4846 27.6941C14.4848 27.6939 14.4849 27.6938 14.4851 27.6938C14.4971 27.6877 14.6682 27.5999 14.7603 27.4973C14.8556 27.3906 15.0573 27.3348 15.0573 27.3348C15.0573 27.3348 14.9806 27.5299 14.8844 27.5908C14.7687 27.6643 14.4932 27.6933 14.4846 27.6941Z" fill="#CA9C5A"/>
<path id="path130" d="M14.57 27.6127C14.6273 27.5392 14.6693 27.4722 14.7433 27.3959C14.7864 27.3512 14.932 27.3086 15.0064 27.3201C15.0378 27.3201 15.0574 27.3347 15.0574 27.3347C15.0574 27.3347 14.8558 27.3906 14.7605 27.4972C14.6683 27.5998 14.4973 27.6876 14.4852 27.6938C14.4912 27.689 14.54 27.6511 14.57 27.6127Z" fill="#6A4000"/>
<path id="path132" d="M20.1482 20.3485C20.1483 20.3489 20.148 20.3492 20.148 20.3497C20.1485 20.3763 20.1499 20.7578 20.0573 21.0111C19.9612 21.2739 20.0428 21.6818 20.0428 21.6818C20.0428 21.6818 20.3043 21.375 20.3228 21.1506C20.3455 20.8806 20.1544 20.3645 20.1482 20.3485Z" fill="#CA9C5A"/>
<path id="path134" d="M20.086 20.5711C20.012 20.7374 19.9359 20.8705 19.8722 21.0688C19.8348 21.1846 19.8899 21.481 19.9741 21.6037C20.0014 21.6598 20.0428 21.6818 20.0428 21.6818C20.0428 21.6818 19.9612 21.2739 20.0573 21.0111C20.1499 20.7578 20.1485 20.3763 20.1481 20.3497C20.1453 20.3642 20.1245 20.4843 20.086 20.5711Z" fill="#6A4000"/>
<path id="path136" d="M19.2759 20.7175C19.2762 20.7179 19.2762 20.7182 19.2765 20.7185C19.294 20.7381 19.5397 21.0237 19.6326 21.2771C19.729 21.5397 20.0519 21.7905 20.0519 21.7905C20.0519 21.7905 20.0516 21.3824 19.9215 21.2013C19.7653 20.983 19.2909 20.7252 19.2759 20.7175Z" fill="#CA9C5A"/>
<path id="path138" d="M19.372 20.927C19.4231 21.1022 19.4513 21.2538 19.5306 21.4463C19.5767 21.5586 19.8083 21.7436 19.9501 21.7787C20.0066 21.8021 20.0519 21.7905 20.0519 21.7905C20.0519 21.7905 19.729 21.5397 19.6326 21.2771C19.5398 21.0237 19.294 20.7381 19.2766 20.7185C19.2839 20.7312 19.3453 20.8356 19.372 20.927Z" fill="#6A4000"/>
<path id="path140" d="M20.379 21.283C20.379 21.2833 20.3787 21.2837 20.3787 21.284C20.3753 21.3104 20.3225 21.688 20.1948 21.9248C20.0623 22.1703 20.0851 22.5861 20.0851 22.5861C20.0851 22.5861 20.3874 22.322 20.4376 22.1028C20.4984 21.8391 20.3828 21.2997 20.379 21.283Z" fill="#CA9C5A"/>
<path id="path142" d="M20.2856 21.4937C20.1887 21.6471 20.0946 21.7674 20.0033 21.9539C19.95 22.0629 19.9624 22.3643 20.028 22.4983C20.0471 22.5579 20.085 22.5861 20.085 22.5861C20.085 22.5861 20.0623 22.1703 20.1947 21.9248C20.3224 21.688 20.3752 21.3104 20.3786 21.284C20.3739 21.2981 20.336 21.4139 20.2856 21.4937Z" fill="#6A4000"/>
<path id="path144" d="M19.4637 21.5165C19.4638 21.5168 19.4638 21.5172 19.4641 21.5175C19.4785 21.5396 19.6809 21.859 19.7369 22.1237C19.7948 22.3981 20.0786 22.6949 20.0786 22.6949C20.0786 22.6949 20.1364 22.2912 20.0334 22.0924C19.91 21.8529 19.4772 21.5264 19.4637 21.5165Z" fill="#CA9C5A"/>
<path id="path146" d="M19.5287 21.7383C19.5544 21.9191 19.5608 22.0736 19.6118 22.2758C19.6416 22.3937 19.8442 22.6119 19.9796 22.6678C20.0322 22.6996 20.0786 22.6949 20.0786 22.6949C20.0786 22.6949 19.7948 22.3982 19.7369 22.1237C19.6809 21.8591 19.4785 21.5397 19.4641 21.5175C19.4695 21.5313 19.5153 21.6439 19.5287 21.7383Z" fill="#6A4000"/>
<path id="path148" d="M20.4741 22.2975C20.474 22.2978 20.4737 22.298 20.4735 22.2984C20.4643 22.3233 20.3279 22.6779 20.1504 22.8779C19.9664 23.085 19.8951 23.495 19.8951 23.495C19.8951 23.495 20.2485 23.3102 20.3466 23.1089C20.4653 22.8669 20.474 22.3146 20.4741 22.2975Z" fill="#CA9C5A"/>
<path id="path150" d="M20.336 22.4802C20.2073 22.6063 20.0887 22.7009 19.9579 22.8606C19.8814 22.9537 19.8256 23.25 19.8594 23.3961C19.8646 23.4587 19.8951 23.495 19.8951 23.495C19.8951 23.495 19.9665 23.085 20.1505 22.8779C20.328 22.6779 20.4644 22.3233 20.4736 22.2984C20.4658 22.3109 20.403 22.4145 20.336 22.4802Z" fill="#6A4000"/>
<path id="path152" d="M19.5312 22.3063C19.5314 22.3067 19.5313 22.3071 19.5314 22.3074C19.5404 22.3324 19.6655 22.6914 19.6603 22.9622C19.655 23.2429 19.8642 23.5994 19.8642 23.5994C19.8642 23.5994 20.0113 23.2203 19.9559 23.0025C19.8898 22.74 19.5422 22.3193 19.5312 22.3063Z" fill="#CA9C5A"/>
<path id="path154" d="M19.5447 22.5376C19.5288 22.7197 19.5004 22.8713 19.5045 23.0803C19.5069 23.2022 19.655 23.4626 19.7741 23.5494C19.8181 23.5928 19.8642 23.5994 19.8642 23.5994C19.8642 23.5994 19.655 23.2429 19.6603 22.9622C19.6655 22.6914 19.5404 22.3324 19.5314 22.3074C19.5335 22.3222 19.5528 22.4426 19.5447 22.5376Z" fill="#6A4000"/>
<path id="path156" d="M20.3629 23.2487C20.3627 23.2492 20.3624 23.2492 20.3623 23.2497C20.3504 23.2733 20.177 23.6104 19.9793 23.7891C19.7742 23.9742 19.6595 24.3736 19.6595 24.3736C19.6595 24.3736 20.0307 24.2299 20.1497 24.041C20.2932 23.8138 20.3609 23.2659 20.3629 23.2487Z" fill="#CA9C5A"/>
<path id="path158" d="M20.206 23.4149C20.0647 23.5257 19.9367 23.6062 19.7896 23.7501C19.7036 23.834 19.6166 24.1223 19.6346 24.2714C19.6331 24.334 19.6595 24.3736 19.6595 24.3736C19.6595 24.3736 19.7742 23.9742 19.9793 23.7891C20.177 23.6104 20.3504 23.2733 20.3623 23.2497C20.3531 23.2611 20.2797 23.3571 20.206 23.4149Z" fill="#6A4000"/>
<path id="path160" d="M19.4247 23.1509C19.4249 23.1514 19.4247 23.1517 19.4249 23.1522C19.431 23.178 19.5171 23.5489 19.4831 23.8175C19.4478 24.0959 19.6178 24.474 19.6178 24.474C19.6178 24.474 19.8043 24.1138 19.7725 23.891C19.7348 23.6227 19.4342 23.1651 19.4247 23.1509Z" fill="#CA9C5A"/>
<path id="path162" d="M19.4134 23.3824C19.3783 23.5617 19.3338 23.709 19.3156 23.9172C19.3049 24.0386 19.4244 24.3143 19.5335 24.414C19.5726 24.4622 19.6178 24.474 19.6178 24.474C19.6178 24.474 19.4478 24.0959 19.4831 23.8175C19.5171 23.5489 19.431 23.178 19.4249 23.1522C19.4253 23.167 19.4317 23.2888 19.4134 23.3824Z" fill="#6A4000"/>
<path id="path164" d="M20.1173 24.1817C20.1172 24.1822 20.1169 24.1822 20.1166 24.1825C20.1007 24.2036 19.8696 24.5018 19.6432 24.6395C19.4083 24.7823 19.2238 25.1528 19.2238 25.1528C19.2238 25.1528 19.6142 25.0825 19.7651 24.9196C19.9473 24.7238 20.1125 24.1982 20.1173 24.1817Z" fill="#CA9C5A"/>
<path id="path166" d="M19.9333 24.3151C19.7746 24.397 19.6342 24.4516 19.4637 24.5651C19.3643 24.6312 19.2268 24.8977 19.2176 25.0476C19.2048 25.1089 19.2237 25.1528 19.2237 25.1528C19.2237 25.1528 19.4083 24.7823 19.6432 24.6395C19.8696 24.5018 20.1007 24.2036 20.1166 24.1825C20.1056 24.1921 20.016 24.2723 19.9333 24.3151Z" fill="#6A4000"/>
<path id="path168" d="M19.2131 23.9067C19.2131 23.9072 19.2129 23.9073 19.2129 23.9078C19.2144 23.9344 19.2322 24.3154 19.1504 24.5728C19.0657 24.8397 19.1646 25.2434 19.1646 25.2434C19.1646 25.2434 19.4129 24.9251 19.4217 24.7002C19.4329 24.4293 19.2199 23.9224 19.2131 23.9067Z" fill="#CA9C5A"/>
<path id="path170" d="M19.1603 24.1319C19.0934 24.3013 19.0231 24.4378 18.9678 24.6388C18.9355 24.756 19.0033 25.0497 19.0925 25.1685C19.1223 25.2232 19.1646 25.2434 19.1646 25.2434C19.1646 25.2434 19.0656 24.8397 19.1504 24.5728C19.2321 24.3154 19.2144 23.9344 19.2129 23.9078C19.2107 23.9224 19.195 24.0435 19.1603 24.1319Z" fill="#6A4000"/>
<path id="path172" d="M19.7346 25.0374C19.7343 25.0377 19.734 25.0377 19.7337 25.0381C19.7145 25.0558 19.4362 25.3079 19.1898 25.4026C18.9344 25.5009 18.6895 25.8323 18.6895 25.8323C18.6895 25.8323 19.0859 25.8336 19.2623 25.7003C19.475 25.5403 19.727 25.0528 19.7346 25.0374Z" fill="#CA9C5A"/>
<path id="path174" d="M19.5307 25.1355C19.3604 25.1875 19.213 25.216 19.0259 25.2969C18.9167 25.344 18.736 25.5816 18.7015 25.7276C18.6784 25.7858 18.6896 25.8323 18.6896 25.8323C18.6896 25.8323 18.9344 25.5009 19.1898 25.4026C19.4362 25.3079 19.7145 25.0558 19.7337 25.0381C19.7212 25.0455 19.6195 25.1083 19.5307 25.1355Z" fill="#6A4000"/>
<path id="path176" d="M18.891 24.6035C18.891 24.604 18.8909 24.6042 18.8907 24.6046C18.8878 24.631 18.8405 25.0094 18.7162 25.2479C18.5872 25.4955 18.6159 25.9108 18.6159 25.9108C18.6159 25.9108 18.9144 25.6422 18.9615 25.4223C19.0186 25.1577 18.8952 24.6202 18.891 24.6035Z" fill="#CA9C5A"/>
<path id="path178" d="M18.801 24.8156C18.7063 24.9704 18.6138 25.0921 18.5252 25.28C18.4735 25.3898 18.4901 25.6911 18.5578 25.8241C18.5778 25.8834 18.616 25.9108 18.616 25.9108C18.616 25.9108 18.5873 25.4955 18.7162 25.2479C18.8405 25.0094 18.8879 24.631 18.8908 24.6046C18.8862 24.6186 18.8501 24.7349 18.801 24.8156Z" fill="#6A4000"/>
<path id="path180" d="M19.1082 25.8916C19.1079 25.8918 19.1076 25.8918 19.1072 25.8919C19.0844 25.9044 18.7549 26.0789 18.4934 26.1091C18.2224 26.1402 17.9066 26.4003 17.9066 26.4003C17.9066 26.4003 18.2907 26.5008 18.4933 26.4159C18.7374 26.3141 19.0972 25.9045 19.1082 25.8916Z" fill="#CA9C5A"/>
<path id="path182" d="M18.8874 25.9355C18.7099 25.9432 18.5602 25.9339 18.3595 25.9654C18.2425 25.9838 18.0109 26.1688 17.9429 26.3018C17.9069 26.3522 17.9066 26.4004 17.9066 26.4004C17.9066 26.4004 18.2224 26.1403 18.4934 26.1091C18.7549 26.0789 19.0844 25.9044 19.1072 25.8919C19.0934 25.896 18.9799 25.9314 18.8874 25.9355Z" fill="#6A4000"/>
<path id="path184" d="M18.393 25.2591C18.3928 25.2594 18.3925 25.2596 18.3925 25.2601C18.3832 25.2849 18.2477 25.64 18.0707 25.8402C17.8871 26.0479 17.8167 26.458 17.8167 26.458C17.8167 26.458 18.1697 26.2723 18.2674 26.0709C18.3853 25.8286 18.393 25.2763 18.393 25.2591Z" fill="#CA9C5A"/>
<path id="path186" d="M18.2551 25.4423C18.1268 25.5686 18.0083 25.6635 17.8778 25.8235C17.8016 25.9168 17.7465 26.2132 17.7807 26.3593C17.786 26.4217 17.8166 26.458 17.8166 26.458C17.8166 26.458 17.887 26.0479 18.0706 25.8402C18.2476 25.64 18.3831 25.2849 18.3925 25.2601C18.3845 25.2727 18.322 25.3763 18.2551 25.4423Z" fill="#6A4000"/>
<path id="path188" d="M18.4253 26.5034C18.425 26.5037 18.4247 26.5035 18.4242 26.5038C18.401 26.5153 18.0656 26.6775 17.8033 26.6978C17.5313 26.7186 17.2064 26.9668 17.2064 26.9668C17.2064 26.9668 17.5869 27.0817 17.7923 27.0044C18.0398 26.9118 18.4138 26.5159 18.4253 26.5034Z" fill="#CA9C5A"/>
<path id="path190" d="M18.2029 26.5391C18.0254 26.54 17.876 26.5252 17.6744 26.5492C17.5568 26.5631 17.3189 26.7394 17.2462 26.8696C17.2083 26.9188 17.2064 26.9668 17.2064 26.9668C17.2064 26.9668 17.5313 26.7186 17.8033 26.6978C18.0656 26.6775 18.401 26.5153 18.4242 26.5038C18.4103 26.5073 18.2956 26.5384 18.2029 26.5391Z" fill="#6A4000"/>
<path id="path192" d="M17.7327 25.8446C17.7326 25.8449 17.7324 25.845 17.7323 25.8455C17.7222 25.8699 17.5742 26.2198 17.3902 26.4132C17.1993 26.6139 17.1144 27.021 17.1144 27.021C17.1144 27.021 17.4738 26.8488 17.5786 26.6512C17.7051 26.4134 17.7321 25.8617 17.7327 25.8446Z" fill="#CA9C5A"/>
<path id="path194" d="M17.5887 26.0224C17.4559 26.1438 17.3342 26.2342 17.1981 26.3893C17.1187 26.4798 17.0531 26.7738 17.082 26.921C17.0852 26.9837 17.1144 27.021 17.1144 27.021C17.1144 27.021 17.1993 26.6139 17.3903 26.4132C17.5742 26.2198 17.7222 25.8699 17.7323 25.8455C17.724 25.8576 17.6579 25.959 17.5887 26.0224Z" fill="#6A4000"/>
<path id="path196" d="M17.5476 27.0834C17.5471 27.0834 17.547 27.0833 17.5465 27.0834C17.5212 27.088 17.1556 27.1511 16.8977 27.0977C16.6303 27.0424 16.2524 27.1912 16.2524 27.1912C16.2524 27.1912 16.5886 27.4074 16.8068 27.3901C17.0693 27.3697 17.5332 27.0923 17.5476 27.0834Z" fill="#CA9C5A"/>
<path id="path198" d="M17.3241 27.0559C17.1529 27.0077 17.013 26.9519 16.8126 26.919C16.6956 26.8996 16.4203 27.0036 16.3163 27.1088C16.267 27.1456 16.2524 27.1912 16.2524 27.1912C16.2524 27.1912 16.6303 27.0424 16.8977 27.0977C17.1556 27.1511 17.5212 27.088 17.5465 27.0834C17.532 27.083 17.4135 27.0811 17.3241 27.0559Z" fill="#6A4000"/>
<path id="path200" d="M17.0533 26.2566C17.053 26.2571 17.0527 26.2571 17.0525 26.2574C17.0363 26.2782 16.8023 26.574 16.5744 26.7092C16.3381 26.8495 16.1498 27.2179 16.1498 27.2179C16.1498 27.2179 16.541 27.1519 16.6936 26.9905C16.8776 26.7968 17.0483 26.2731 17.0533 26.2566Z" fill="#CA9C5A"/>
<path id="path202" d="M16.8678 26.388C16.7082 26.4681 16.5674 26.5212 16.3957 26.6327C16.2956 26.6979 16.1554 26.9629 16.1447 27.1127C16.1313 27.1739 16.1498 27.2179 16.1498 27.2179C16.1498 27.2179 16.3381 26.8495 16.5744 26.7092C16.8023 26.574 17.0363 26.2782 17.0525 26.2574C17.0414 26.267 16.9511 26.3461 16.8678 26.388Z" fill="#6A4000"/>
<path id="path204" d="M16.6573 27.4515C16.6569 27.4515 16.6567 27.4513 16.6563 27.4513C16.6305 27.4513 16.2599 27.4478 16.0149 27.3491C15.761 27.2467 15.3637 27.3253 15.3637 27.3253C15.3637 27.3253 15.6582 27.5986 15.8759 27.6205C16.138 27.6475 16.6418 27.4576 16.6573 27.4515Z" fill="#CA9C5A"/>
<path id="path206" d="M16.442 27.3844C16.2814 27.306 16.1531 27.2259 15.9614 27.1577C15.8495 27.1178 15.5609 27.1706 15.4405 27.2555C15.3857 27.283 15.3637 27.3253 15.3637 27.3253C15.3637 27.3253 15.761 27.2467 16.0149 27.349C16.2599 27.4478 16.6305 27.4512 16.6563 27.4512C16.6421 27.4483 16.5257 27.4251 16.442 27.3844Z" fill="#6A4000"/>
<path id="path208" d="M16.1793 26.6463C16.179 26.6466 16.1787 26.6466 16.1784 26.6469C16.1616 26.6621 15.9158 26.8804 15.6994 26.9612C15.4748 27.0451 15.2578 27.3332 15.2578 27.3332C15.2578 27.3332 15.6048 27.3375 15.7603 27.2226C15.9477 27.0844 16.1724 26.6596 16.1793 26.6463Z" fill="#CA9C5A"/>
<path id="path210" d="M15.9999 26.7304C15.8504 26.7745 15.721 26.798 15.5566 26.8674C15.4606 26.9076 15.3005 27.1141 15.269 27.2417C15.2484 27.2923 15.2577 27.3332 15.2577 27.3332C15.2577 27.3332 15.4748 27.0451 15.6993 26.9613C15.9158 26.8804 16.1615 26.6622 16.1783 26.6469C16.1675 26.6534 16.0778 26.7075 15.9999 26.7304Z" fill="#6A4000"/>
<path id="path212" d="M15.7957 27.6941C15.7955 27.6939 15.7954 27.6938 15.7952 27.6938C15.7833 27.6877 15.6121 27.5999 15.52 27.4973C15.4247 27.3906 15.223 27.3348 15.223 27.3348C15.223 27.3348 15.2997 27.5299 15.3959 27.5908C15.5117 27.6643 15.7871 27.6933 15.7957 27.6941Z" fill="#CA9C5A"/>
<path id="path214" d="M15.7104 27.6127C15.6532 27.5392 15.6112 27.4722 15.5372 27.3959C15.494 27.3512 15.3484 27.3086 15.274 27.3201C15.2426 27.3201 15.223 27.3347 15.223 27.3347C15.223 27.3347 15.4247 27.3906 15.52 27.4972C15.6121 27.5998 15.7833 27.6876 15.7952 27.6938C15.7893 27.689 15.7404 27.6511 15.7104 27.6127Z" fill="#6A4000"/>
<path id="path216" d="M12.6345 14.3356C9.85021 14.9147 7.7372 16.6246 6.54247 18.6984C5.55831 20.4048 5.41869 21.777 5.83488 23.4041C7.84507 31.6065 10.6999 27.2947 14.5355 31.2915C14.5683 31.3265 14.5631 31.3709 14.5361 31.3973L14.2443 31.6795C14.2176 31.7054 14.1744 31.7072 14.1452 31.6764C11.7801 29.2383 9.9455 30.1662 8.06412 28.8147C6.46688 27.6532 5.77556 25.2275 5.33988 23.2094C4.91522 21.2311 5.49154 19.4647 6.71479 17.8044C6.78794 17.7015 7.01887 17.4191 7.0571 17.375C8.55782 15.6925 10.3102 14.6103 12.6345 14.3356Z" fill="#CA9C5A"/>
<path id="path218" d="M4.41085 16.6559C4.41062 16.6573 4.4111 16.6581 4.41085 16.6594C4.39785 16.7418 4.22285 17.9258 4.39732 18.7565C4.57853 19.618 4.14272 20.8459 4.14272 20.8459C4.14272 20.8459 3.46769 19.7696 3.51053 19.0641C3.56059 18.2146 4.38461 16.7026 4.41085 16.6559Z" fill="#CA9C5A"/>
<path id="path220" d="M4.50482 17.3766C4.66031 17.9278 4.83699 18.3772 4.94648 19.0234C5.01068 19.4004 4.70716 20.2945 4.39121 20.6359C4.28112 20.797 4.1427 20.8459 4.1427 20.8459C4.1427 20.8459 4.57851 19.618 4.3973 18.7565C4.22283 17.9258 4.39784 16.7418 4.41084 16.6594C4.41281 16.7061 4.42403 17.089 4.50482 17.3766Z" fill="#6A4000"/>
<path id="path222" d="M6.17021 18.0863C6.16968 18.0875 6.17003 18.0883 6.16949 18.0897C6.14252 18.1684 5.7662 19.3014 5.79466 20.1511C5.82443 21.0319 5.18385 22.1607 5.18385 22.1607C5.18385 22.1607 4.70513 20.9781 4.86892 20.2916C5.06469 19.4648 6.13625 18.1273 6.17021 18.0863Z" fill="#CA9C5A"/>
<path id="path224" d="M6.13837 18.8126C6.19637 19.3835 6.29278 19.8581 6.28915 20.514C6.2873 20.8966 5.83443 21.7213 5.46467 21.9995C5.32855 22.1377 5.18387 22.1607 5.18387 22.1607C5.18387 22.1607 5.82445 21.0319 5.79468 20.1511C5.76623 19.3014 6.14254 18.1684 6.16951 18.0897C6.1635 18.136 6.10854 18.515 6.13837 18.8126Z" fill="#6A4000"/>
<path id="path226" d="M2.66228 18.9172C2.66275 18.9183 2.66347 18.9187 2.66388 18.9198C2.69342 18.9839 3.12601 19.9003 3.6379 20.3958C4.16883 20.9092 4.4393 21.9861 4.4393 21.9861C4.4393 21.9861 3.46165 21.5677 3.16079 21.052C2.79754 20.4319 2.66579 18.963 2.66228 18.9172Z" fill="#CA9C5A"/>
<path id="path228" d="M3.06607 19.3755C3.43351 19.6845 3.76806 19.9114 4.14779 20.3098C4.36957 20.5419 4.57626 21.3194 4.51499 21.7155C4.51331 21.8831 4.43927 21.9861 4.43927 21.9861C4.43927 21.9861 4.1688 20.9092 3.63787 20.3958C3.12598 19.9003 2.69339 18.9839 2.66385 18.9198C2.68713 18.9514 2.8746 19.2141 3.06607 19.3755Z" fill="#6A4000"/>
<path id="path230" d="M2.3569 21.5202C2.35761 21.5211 2.35845 21.5213 2.35916 21.5224C2.40499 21.5804 3.07154 22.408 3.71679 22.7837C4.38601 23.1729 4.92542 24.2069 4.92542 24.2069C4.92542 24.2069 3.82143 24.0302 3.3876 23.5795C2.86437 23.0377 2.37163 21.5662 2.3569 21.5202Z" fill="#CA9C5A"/>
<path id="path232" d="M2.88236 21.8856C3.33416 22.1074 3.73227 22.2538 4.21844 22.5639C4.50228 22.7447 4.90342 23.4881 4.93708 23.91C4.97616 24.0821 4.92538 24.2069 4.92538 24.2069C4.92538 24.2069 4.38598 23.1729 3.71675 22.7837C3.07151 22.408 2.40496 21.5804 2.35913 21.5224C2.39069 21.5488 2.64685 21.7697 2.88236 21.8856Z" fill="#6A4000"/>
<path id="path234" d="M4.71691 20.4999C4.71695 20.5013 4.71767 20.5021 4.71767 20.5035C4.72317 20.5897 4.81416 21.8273 5.1782 22.6244C5.55588 23.451 5.39342 24.7953 5.39342 24.7953C5.39342 24.7953 4.46844 23.8702 4.35222 23.1475C4.21074 22.2777 4.70098 20.5533 4.71691 20.4999Z" fill="#CA9C5A"/>
<path id="path236" d="M4.9747 21.2052C5.25634 21.7246 5.53636 22.1361 5.79305 22.7623C5.94311 23.1277 5.83876 24.1034 5.59686 24.5238C5.52209 24.7128 5.39334 24.7953 5.39334 24.7953C5.39334 24.7953 5.5558 23.451 5.17811 22.6244C4.81408 21.8273 4.72309 20.5897 4.71759 20.5035C4.73019 20.55 4.8281 20.9341 4.9747 21.2052Z" fill="#6A4000"/>
<path id="path238" d="M2.45901 25.5815C2.46033 25.5821 2.46123 25.5816 2.46254 25.5823C2.54159 25.6112 3.68132 26.0155 4.53653 25.9874C5.42332 25.9578 6.55789 26.6441 6.55789 26.6441C6.55789 26.6441 5.36633 27.1519 4.67573 26.9754C3.84396 26.7644 2.50043 25.6178 2.45901 25.5815Z" fill="#CA9C5A"/>
<path id="path240" d="M3.19021 25.6174C3.76499 25.5568 4.24293 25.4552 4.90309 25.4607C5.28837 25.4635 6.11727 25.9488 6.39634 26.344C6.53519 26.4896 6.55786 26.6441 6.55786 26.6441C6.55786 26.6441 5.42328 25.9578 4.5365 25.9874C3.68128 26.0155 2.54156 25.6112 2.46251 25.5823C2.50899 25.5887 2.89038 25.6484 3.19021 25.6174Z" fill="#6A4000"/>
<path id="path242" d="M4.89914 24.289C4.8998 24.2903 4.90076 24.2906 4.90142 24.2918C4.94389 24.3664 5.56444 25.4304 6.23713 25.9748C6.93489 26.539 7.37541 27.8157 7.37541 27.8157C7.37541 27.8157 6.14561 27.4159 5.72686 26.8237C5.22141 26.1117 4.90821 24.3442 4.89914 24.289Z" fill="#CA9C5A"/>
<path id="path244" d="M5.43695 24.8004C5.91501 25.1344 6.34456 25.3728 6.84685 25.814C7.14011 26.0712 7.47205 26.9915 7.43904 27.4788C7.45456 27.6823 7.37543 27.8157 7.37543 27.8157C7.37543 27.8157 6.93492 26.539 6.23716 25.9748C5.56447 25.4304 4.94392 24.3664 4.90144 24.2918C4.93294 24.3277 5.18785 24.6257 5.43695 24.8004Z" fill="#6A4000"/>
<path id="path246" d="M7.5839 24.0223C7.58397 24.0239 7.58468 24.0245 7.58474 24.0259C7.5913 24.1121 7.69822 25.3483 8.07246 26.1404C8.46078 26.9618 8.31554 28.3082 8.31554 28.3082C8.31554 28.3082 7.37876 27.3958 7.25328 26.6748C7.10059 25.807 7.56863 24.0761 7.5839 24.0223Z" fill="#CA9C5A"/>
<path id="path248" d="M7.85084 24.7242C8.13915 25.2396 8.42441 25.6472 8.68909 26.2698C8.84388 26.6331 8.75206 27.6103 8.51565 28.0339C8.44334 28.2239 8.31558 28.3082 8.31558 28.3082C8.31558 28.3082 8.46081 26.9618 8.07249 26.1404C7.69825 25.3483 7.59133 24.1121 7.58478 24.0259C7.59796 24.0723 7.70076 24.4551 7.85084 24.7242Z" fill="#6A4000"/>
<path id="path250" d="M9.41445 25.1816C9.41451 25.183 9.41521 25.1838 9.41521 25.1852C9.42178 25.2714 9.5287 26.5074 9.90294 27.2996C10.2913 28.1209 10.1461 29.4675 10.1461 29.4675C10.1461 29.4675 9.20931 28.5549 9.08376 27.8339C8.93113 26.9662 9.39917 25.2352 9.41445 25.1816Z" fill="#CA9C5A"/>
<path id="path252" d="M9.68131 25.8834C9.96957 26.3987 10.2549 26.8064 10.5196 27.4291C10.6744 27.7924 10.5825 28.7694 10.3461 29.1931C10.2738 29.383 10.1461 29.4675 10.1461 29.4675C10.1461 29.4675 10.2912 28.1209 9.90292 27.2996C9.52868 26.5074 9.42176 25.2714 9.41519 25.1852C9.42839 25.2316 9.53125 25.6142 9.68131 25.8834Z" fill="#6A4000"/>
<path id="path254" d="M3.93048 28.4155C3.93192 28.4158 3.93276 28.4153 3.93424 28.4156C4.02082 28.4315 5.26614 28.6471 6.14516 28.4663C7.05653 28.2785 8.34381 28.7864 8.34381 28.7864C8.34381 28.7864 7.19747 29.5225 6.45438 29.4626C5.55958 29.3922 3.97928 28.4456 3.93048 28.4155Z" fill="#CA9C5A"/>
<path id="path256" d="M4.6921 28.3226C5.27589 28.1583 5.75276 27.9685 6.43584 27.857C6.83441 27.7918 7.77216 28.1462 8.12664 28.5051C8.29454 28.6307 8.34384 28.7864 8.34384 28.7864C8.34384 28.7864 7.05656 28.2785 6.14519 28.4662C5.26616 28.6471 4.02084 28.4315 3.93427 28.4156C3.98337 28.4141 4.38744 28.408 4.6921 28.3226Z" fill="#6A4000"/>
<path id="path258" d="M7.58478 31.3818C7.58597 31.3815 7.58638 31.3807 7.58751 31.3804C7.65756 31.3544 8.65897 30.972 9.2294 30.4577C9.82065 29.9244 10.9725 29.7379 10.9725 29.7379C10.9725 29.7379 10.4335 30.7752 9.86407 31.054C9.17921 31.3907 7.63292 31.3827 7.58478 31.3818Z" fill="#CA9C5A"/>
<path id="path260" d="M8.10512 30.9833C8.4658 30.6093 8.73765 30.263 9.19292 29.8848C9.45838 29.664 10.291 29.5167 10.698 29.626C10.8726 29.6453 10.9724 29.7379 10.9724 29.7379C10.9724 29.7379 9.82057 29.9244 9.22932 30.4577C8.65889 30.972 7.65748 31.3544 7.58743 31.3803C7.62289 31.3579 7.91669 31.1781 8.10512 30.9833Z" fill="#6A4000"/>
<path id="path262" d="M13.7544 12.6062C13.7532 12.6065 13.7528 12.6073 13.7518 12.6078C13.6853 12.6353 12.7363 13.0401 12.2062 13.5556C11.6567 14.0901 10.5562 14.3121 10.5562 14.3121C10.5562 14.3121 11.0378 13.2951 11.5752 13.0061C12.2216 12.657 13.7081 12.6071 13.7544 12.6062Z" fill="#CA9C5A"/>
<path id="path264" d="M13.2682 13.0086C12.9347 13.3815 12.6856 13.7243 12.2613 14.1047C12.0139 14.3269 11.2188 14.4994 10.8239 14.4096C10.6554 14.3975 10.5562 14.3121 10.5562 14.3121C10.5562 14.3121 11.6567 14.0901 12.2062 13.5555C12.7363 13.04 13.6853 12.6353 13.7518 12.6077C13.7185 12.6305 13.4425 12.8144 13.2682 13.0086Z" fill="#6A4000"/>
<path id="path266" d="M11.4495 12.0468C11.4488 12.0478 11.449 12.0487 11.4483 12.0496C11.4096 12.1116 10.863 13.007 10.7201 13.7431C10.5722 14.5065 9.79927 15.3429 9.79927 15.3429C9.79927 15.3429 9.62075 14.2266 9.89671 13.6708C10.2278 13.0009 11.4123 12.0751 11.4495 12.0468Z" fill="#CA9C5A"/>
<path id="path268" d="M11.2791 12.6645C11.2165 13.1674 11.2059 13.5953 11.0737 14.1583C10.9967 14.487 10.445 15.1011 10.0724 15.263C9.92816 15.3535 9.79927 15.3429 9.79927 15.3429C9.79927 15.3429 10.5722 14.5065 10.7201 13.7431C10.863 13.007 11.4096 12.1116 11.4483 12.0496C11.434 12.0882 11.3121 12.4024 11.2791 12.6645Z" fill="#6A4000"/>
<path id="path270" d="M9.60204 12.93C9.60174 12.9309 9.60204 12.9315 9.60169 12.9325C9.58539 12.9894 9.35943 13.8097 9.41086 14.4124C9.46439 15.0375 9.05042 15.8649 9.05042 15.8649C9.05042 15.8649 8.6667 15.0427 8.75792 14.5485C8.86675 13.9531 9.57942 12.9606 9.60204 12.93Z" fill="#CA9C5A"/>
<path id="path272" d="M9.60615 13.4477C9.66832 13.8513 9.7543 14.1849 9.77571 14.6513C9.78848 14.9234 9.49676 15.5272 9.24413 15.7394C9.15248 15.843 9.05046 15.8649 9.05046 15.8649C9.05046 15.8649 9.46443 15.0375 9.4109 14.4124C9.35947 13.8097 9.58543 12.9894 9.60173 12.9325C9.59917 12.9657 9.57392 13.2371 9.60615 13.4477Z" fill="#6A4000"/>
<path id="path274" d="M13.3565 14.9153C13.3554 14.9155 13.355 14.9161 13.354 14.9164C13.2936 14.9323 12.4289 15.1707 11.9138 15.5536C11.3798 15.9509 10.4045 16.0135 10.4045 16.0135C10.4045 16.0135 10.9333 15.1915 11.4296 15.0048C12.0267 14.7792 13.3163 14.9106 13.3565 14.9153Z" fill="#CA9C5A"/>
<path id="path276" d="M12.8918 15.206C12.5624 15.4889 12.3092 15.7557 11.9005 16.0346C11.6622 16.1975 10.9562 16.2531 10.625 16.1291C10.4807 16.0989 10.4045 16.0135 10.4045 16.0135C10.4045 16.0135 11.3798 15.9509 11.9138 15.5537C12.4289 15.1707 13.2936 14.9323 13.354 14.9165C13.3227 14.9322 13.064 15.0586 12.8918 15.206Z" fill="#6A4000"/>
<path id="path278" d="M10.7165 14.3661C10.7158 14.367 10.7159 14.3678 10.7151 14.3686C10.6735 14.4243 10.0845 15.2299 9.89151 15.9173C9.69156 16.6303 8.89219 17.361 8.89219 17.361C8.89219 17.361 8.8095 16.2857 9.11493 15.7806C9.48165 15.1717 10.6789 14.3898 10.7165 14.3661Z" fill="#CA9C5A"/>
<path id="path280" d="M10.5065 14.9388C10.4079 15.4113 10.3646 15.8169 10.195 16.3409C10.0964 16.6466 9.52444 17.1846 9.1579 17.3075C9.0138 17.3816 8.8922 17.361 8.8922 17.361C8.8922 17.361 9.69156 16.6302 9.89151 15.9172C10.0845 15.2299 10.6735 14.4242 10.7151 14.3686C10.6985 14.4039 10.5583 14.6925 10.5065 14.9388Z" fill="#6A4000"/>
<path id="path282" d="M11.2342 16.7185C11.2331 16.7188 11.2328 16.7196 11.2317 16.72C11.1695 16.7488 10.28 17.1706 9.79341 17.6817C9.28911 18.2118 8.24879 18.4651 8.24879 18.4651C8.24879 18.4651 8.67107 17.478 9.17268 17.1822C9.77588 16.8251 11.1901 16.721 11.2342 16.7185Z" fill="#CA9C5A"/>
<path id="path284" d="M10.7855 17.1203C10.4812 17.4881 10.2561 17.8241 9.86562 18.2027C9.63793 18.4238 8.88671 18.6183 8.50728 18.5478C8.34636 18.5427 8.24879 18.4651 8.24879 18.4651C8.24879 18.4651 9.28911 18.2118 9.79341 17.6817C10.28 17.1706 11.1695 16.7488 11.2317 16.72C11.2009 16.743 10.9445 16.9286 10.7855 17.1203Z" fill="#6A4000"/>
<path id="path286" d="M7.24789 14.4335C7.24777 14.4351 7.24842 14.4359 7.24836 14.4373C7.24627 14.525 7.22939 15.7858 7.52748 16.6265C7.83698 17.4981 7.55411 18.8435 7.55411 18.8435C7.55411 18.8435 6.69953 17.8208 6.6456 17.0787C6.57908 16.1854 7.22701 14.4862 7.24789 14.4335Z" fill="#CA9C5A"/>
<path id="path288" d="M7.44675 15.1714C7.68597 15.7232 7.9331 16.1657 8.13771 16.8235C8.2574 17.2071 8.06587 18.1847 7.78405 18.5876C7.69174 18.7719 7.55416 18.8435 7.55416 18.8435C7.55416 18.8435 7.83704 17.4981 7.52754 16.6265C7.22945 15.7858 7.24633 14.525 7.24842 14.4373C7.25702 14.4856 7.32229 14.8834 7.44675 15.1714Z" fill="#6A4000"/>
<path id="path290" d="M9.0193 16.0586C9.01852 16.0599 9.01875 16.0608 9.01803 16.0621C8.97699 16.1391 8.39826 17.2503 8.28717 18.138C8.17218 19.0585 7.31966 20.1187 7.31966 20.1187C7.31966 20.1187 7.01816 18.8061 7.302 18.1215C7.64234 17.2969 8.97723 16.0954 9.0193 16.0586Z" fill="#CA9C5A"/>
<path id="path292" d="M8.86589 16.808C8.83157 17.4112 8.85318 17.9212 8.74076 18.6019C8.67549 18.9992 8.06837 19.7765 7.63811 20.0006C7.47384 20.1204 7.31966 20.1187 7.31966 20.1187C7.31966 20.1187 8.17218 19.0585 8.28717 18.138C8.39827 17.2503 8.97699 16.1391 9.01803 16.0621C9.00407 16.1091 8.88421 16.4933 8.86589 16.808Z" fill="#6A4000"/>
<path id="path294" d="M9.94838 18.8435C9.94742 18.8441 9.9473 18.8451 9.94629 18.8459C9.88925 18.8949 9.07771 19.6081 8.71433 20.2922C8.33782 21.0017 7.31966 21.5842 7.31966 21.5842C7.31966 21.5842 7.47891 20.4205 7.91992 19.9575C8.44988 19.3992 9.90291 18.8595 9.94838 18.8435Z" fill="#CA9C5A"/>
<path id="path296" d="M9.59336 19.4014C9.37986 19.8798 9.24048 20.3008 8.93975 20.8166C8.76451 21.1178 8.03263 21.5505 7.61448 21.592C7.44424 21.6358 7.31966 21.5842 7.31966 21.5842C7.31966 21.5842 8.33782 21.0017 8.71434 20.2922C9.07771 19.6081 9.88925 18.8949 9.94629 18.8459C9.92052 18.8794 9.70499 19.152 9.59336 19.4014Z" fill="#6A4000"/>
<path id="path298" d="M6.34452 18.4651C6.34476 18.4662 6.34536 18.4667 6.34554 18.4677C6.36033 18.531 6.58235 19.4379 6.95211 19.9817C7.33572 20.5455 7.3828 21.5653 7.3828 21.5653C7.3828 21.5653 6.5805 21.0006 6.40408 20.4795C6.19046 19.8522 6.33933 18.507 6.34452 18.4651Z" fill="#CA9C5A"/>
<path id="path300" d="M6.62403 18.9548C6.89797 19.3032 7.15721 19.5718 7.4259 20.0028C7.58294 20.2543 7.62722 20.9926 7.50008 21.3367C7.46809 21.4868 7.38283 21.5653 7.38283 21.5653C7.38283 21.5653 7.33575 20.5455 6.95213 19.9817C6.58237 19.4379 6.36035 18.531 6.34557 18.4677C6.36072 18.5007 6.48136 18.7729 6.62403 18.9548Z" fill="#6A4000"/>
<path id="path302" d="M9.00403 21.2354C9.00325 21.236 9.00313 21.2368 9.00229 21.2374C8.9548 21.2805 8.279 21.9055 7.984 22.4958C7.67838 23.108 6.82401 23.6262 6.82401 23.6262C6.82401 23.6262 6.93522 22.6323 7.30087 22.2286C7.74026 21.7416 8.96566 21.2502 9.00403 21.2354Z" fill="#CA9C5A"/>
<path id="path304" d="M8.7135 21.7182C8.54184 22.13 8.43198 22.4914 8.18682 22.9371C8.04397 23.1973 7.43011 23.5818 7.07508 23.6265C6.93111 23.6674 6.82401 23.6262 6.82401 23.6262C6.82401 23.6262 7.67838 23.108 7.984 22.4958C8.279 21.9054 8.9548 21.2805 9.00229 21.2374C8.98112 21.2667 8.80336 21.5035 8.7135 21.7182Z" fill="#6A4000"/>
<path id="path306" d="M6.9198 20.9633C6.91944 20.9647 6.91992 20.9657 6.91951 20.9671C6.89994 21.0545 6.63125 22.3118 6.76156 23.2157C6.89701 24.153 6.3455 25.4385 6.3455 25.4385C6.3455 25.4385 5.69507 24.2349 5.78928 23.4813C5.90109 22.5738 6.88842 21.0116 6.9198 20.9633Z" fill="#CA9C5A"/>
<path id="path308" d="M6.97127 21.7433C7.10035 22.3459 7.25918 22.8406 7.33245 23.5417C7.37553 23.9507 6.98876 24.8881 6.62646 25.2313C6.4974 25.3961 6.34549 25.4385 6.34549 25.4385C6.34549 25.4385 6.89699 24.153 6.76155 23.2157C6.63124 22.3118 6.89992 21.0545 6.91949 20.9671C6.91847 21.0172 6.90434 21.4289 6.97127 21.7433Z" fill="#6A4000"/>
</g>
</svg>
