<svg width="22" height="34" viewBox="0 0 22 34" fill="none" xmlns="http://www.w3.org/2000/svg">
<g id="Group 28">
<path id="path604" d="M15.9283 12.7664C19.3105 14.5439 21.6264 18.1651 21.6264 22.3435C21.6264 28.2792 16.9522 33.0915 11.1865 33.0915C5.42078 33.0915 0.747238 28.2792 0.747238 22.3435C0.747238 18.2633 2.95555 14.7141 6.20943 12.8935C7.68852 12.0665 9.38404 11.5961 11.1865 11.5961C12.8938 11.5961 14.5058 12.0181 15.9283 12.7664Z" fill="#292929"/>
<path id="path606" d="M11.1865 32.6515C8.51219 32.6515 5.99792 31.5793 4.10703 29.6323C2.21598 27.6854 1.17468 25.0968 1.17468 22.3435C1.17468 18.561 3.18213 15.0881 6.41356 13.2801C7.86911 12.4663 9.51958 12.036 11.1865 12.036C12.7884 12.036 14.3184 12.4136 15.7339 13.1582C17.3528 14.009 18.7184 15.2986 19.6834 16.8879C20.6749 18.521 21.1992 20.4075 21.1992 22.3435C21.1992 25.0968 20.1576 27.6854 18.2665 29.6323C16.3753 31.5793 13.861 32.6515 11.1865 32.6515Z" fill="#C9C9C9"/>
<path id="path608" d="M11.1866 31.3945C8.83833 31.3945 6.63078 30.453 4.97039 28.7435C3.30999 27.034 2.39563 24.761 2.39563 22.3435C2.39563 19.0222 4.15822 15.973 6.99571 14.3855C8.27361 13.6707 9.72291 13.293 11.1866 13.293C12.5932 13.293 13.9365 13.6245 15.1794 14.2784C16.6009 15.0254 17.8 16.1578 18.6472 17.5533C19.518 18.9872 19.9781 20.6436 19.9781 22.3435C19.9781 24.761 19.0637 27.0339 17.4032 28.7435C15.7426 30.453 13.5349 31.3945 11.1866 31.3945Z" stroke="#929292" stroke-width="2.61099" stroke-miterlimit="10"/>
<path id="path610" d="M11.1867 28.4808C9.59443 28.4808 8.09747 27.8425 6.97155 26.6834C5.84578 25.524 5.22562 23.9829 5.22562 22.3435C5.22562 20.0916 6.42089 18.0238 8.34493 16.9473C9.21148 16.4627 10.1941 16.2067 11.1867 16.2067C12.1405 16.2067 13.0513 16.4314 13.8942 16.8747C14.8581 17.3814 15.6711 18.1491 16.2456 19.0953C16.836 20.0677 17.1481 21.191 17.1481 22.3435C17.1481 23.9829 16.5279 25.524 15.402 26.6834C14.2761 27.8425 12.779 28.4808 11.1867 28.4808V28.4808Z" stroke="#C9C9C9" stroke-width="1.865" stroke-miterlimit="10"/>
<path id="path612" d="M11.1867 29.8167C9.24787 29.8167 7.42495 29.0394 6.05402 27.6278C4.68308 26.2163 3.92819 24.3397 3.92819 22.3435C3.92819 19.6012 5.38359 17.0835 7.72633 15.7726C8.78152 15.1826 9.97817 14.8707 11.1867 14.8707C12.3481 14.8707 13.4572 15.1445 14.4835 15.6842C15.6571 16.3012 16.6472 17.2362 17.3467 18.3883C18.0657 19.5723 18.4457 20.94 18.4457 22.3435C18.4457 24.3396 17.6905 26.2163 16.3196 27.6278C14.9485 29.0394 13.1256 29.8167 11.1867 29.8167V29.8167Z" stroke="#929292" stroke-width="2.61099" stroke-miterlimit="10"/>
<path id="path614" d="M14.3741 11.1299V10.7326C14.3741 10.6177 14.2835 10.5244 14.1717 10.5244H7.82676C7.7151 10.5244 7.62452 10.6177 7.62452 10.7326V11.1299C7.62452 11.2454 7.7151 11.3387 7.82676 11.3387H14.1717C14.2835 11.3387 14.3741 11.2454 14.3741 11.1299ZM15.4203 10.8326C15.6861 11.4428 15.8338 12.0998 15.8573 12.7664C14.4346 12.0181 12.8226 11.596 11.1155 11.596C9.31302 11.596 7.61749 12.0665 6.13841 12.8935C6.14605 12.1833 6.29605 11.4816 6.57833 10.8326L6.71 10.5304C6.8571 10.192 7.16291 9.95529 7.51988 9.90387L7.90864 9.84757C9.9587 9.55208 12.0399 9.55208 14.0906 9.84757L14.4787 9.90387C14.8357 9.95529 15.1415 10.192 15.2886 10.5304L15.4203 10.8326Z" fill="#C9C9C9"/>
<path id="path616" d="M17.6263 0.27104L14.0066 10.6776H11.9952L15.6044 0.279532V0.27104H17.6263Z" fill="#FF6E77"/>
<path id="path618" d="M15.6044 0.27104V0.279532L11.9952 10.6776H10.0093L13.6185 0.279532V0.27104H15.6044Z" fill="#77DFE1"/>
<path id="path620" d="M13.6185 0.27104V0.279532L10.0094 10.6776H7.98038L11.6001 0.27104H13.6185Z" fill="#AC748C"/>
<path id="path622" d="M20.9319 22.3438C20.9319 25.7332 18.2631 28.4808 14.9707 28.4808C11.6785 28.4808 9.00945 25.7332 9.00945 22.3438C9.00945 18.9543 11.6785 16.2067 14.9707 16.2067C18.2631 16.2067 20.9319 18.9543 20.9319 22.3438Z" fill="#9A9898"/>
<path id="path624" d="M4.35997 0.27104L7.97969 10.6776H9.99095L6.38177 0.279532V0.27104H4.35997Z" fill="#AC748C"/>
<path id="path626" d="M6.38176 0.27104V0.279532L9.99094 10.6776H11.977L8.36782 0.279532V0.27104H6.38176Z" fill="#77DFE1"/>
<path id="path628" d="M8.36781 0.27104V0.279532L11.977 10.6776H14.0058L10.3861 0.27104H8.36781Z" fill="#FF6E77"/>
<path id="path630" d="M20.5437 22.3438C20.5437 25.5124 18.0487 28.0812 14.9707 28.0812C11.893 28.0812 9.3978 25.5124 9.3978 22.3438C9.3978 19.1751 11.893 16.6063 14.9707 16.6063C18.0487 16.6063 20.5437 19.1751 20.5437 22.3438Z" fill="#292929"/>
<path id="path632" d="M19.2144 22.3438C19.2144 24.7567 17.3145 26.7126 14.9707 26.7126C12.6271 26.7126 10.727 24.7567 10.727 22.3438C10.727 19.9308 12.6271 17.9749 14.9707 17.9749C17.3145 17.9749 19.2144 19.9308 19.2144 22.3438Z" fill="#929292"/>
<path id="path634" d="M9.96266 20.4326C9.96266 20.4331 9.96281 20.4334 9.96281 20.4339C9.9625 20.4605 9.96098 20.842 10.0537 21.0953C10.1498 21.3581 10.0681 21.766 10.0681 21.766C10.0681 21.766 9.80654 21.4592 9.78821 21.2348C9.76545 20.9648 9.95655 20.4487 9.96266 20.4326Z" fill="#929292"/>
<path id="path636" d="M10.0249 20.6553C10.0989 20.8215 10.1749 20.9547 10.2388 21.153C10.276 21.2688 10.2209 21.5652 10.1369 21.6879C10.1095 21.744 10.068 21.766 10.068 21.766C10.068 21.766 10.1497 21.3581 10.0536 21.0953C9.96092 20.842 9.96245 20.4605 9.96276 20.4339C9.96551 20.4484 9.98643 20.5685 10.0249 20.6553Z" fill="#262626"/>
<path id="path638" d="M10.8349 20.8017C10.8346 20.802 10.8346 20.8023 10.8343 20.8027C10.817 20.8223 10.5713 21.1079 10.4784 21.3612C10.382 21.6239 10.0591 21.8747 10.0591 21.8747C10.0591 21.8747 10.0594 21.4666 10.1894 21.2854C10.3455 21.0672 10.8201 20.8094 10.8349 20.8017Z" fill="#929292"/>
<path id="path640" d="M10.739 21.0112C10.688 21.1864 10.6597 21.338 10.5804 21.5305C10.5343 21.6427 10.3027 21.8278 10.1608 21.8629C10.1043 21.8863 10.0591 21.8747 10.0591 21.8747C10.0591 21.8747 10.382 21.6239 10.4784 21.3613C10.5713 21.1079 10.817 20.8223 10.8343 20.8027C10.8271 20.8154 10.7657 20.9198 10.739 21.0112Z" fill="#262626"/>
<path id="path642" d="M9.73202 21.3672C9.73202 21.3675 9.73233 21.3678 9.73233 21.3682C9.73569 21.3946 9.78854 21.7722 9.91624 22.009C10.0487 22.2545 10.0259 22.6703 10.0259 22.6703C10.0259 22.6703 9.72362 22.4062 9.67336 22.187C9.61257 21.9233 9.7282 21.3839 9.73202 21.3672Z" fill="#929292"/>
<path id="path644" d="M9.82525 21.5779C9.92209 21.7313 10.0163 21.8516 10.1077 22.0381C10.161 22.1471 10.1486 22.4485 10.0829 22.5825C10.0637 22.6421 10.026 22.6703 10.026 22.6703C10.026 22.6703 10.0487 22.2545 9.91629 22.009C9.78859 21.7722 9.73574 21.3946 9.73238 21.3682C9.73711 21.3823 9.77484 21.4981 9.82525 21.5779Z" fill="#262626"/>
<path id="path646" d="M10.6474 21.6006C10.6471 21.6011 10.6471 21.6014 10.6469 21.6017C10.6326 21.6237 10.43 21.9433 10.3741 22.208C10.3162 22.4824 10.0324 22.7791 10.0324 22.7791C10.0324 22.7791 9.97468 22.3754 10.0776 22.1767C10.2011 21.9372 10.6338 21.6107 10.6474 21.6006Z" fill="#929292"/>
<path id="path648" d="M10.5821 21.8225C10.5565 22.0034 10.5501 22.1578 10.4991 22.36C10.4693 22.478 10.2666 22.6961 10.1313 22.7521C10.0787 22.7838 10.0323 22.7791 10.0323 22.7791C10.0323 22.7791 10.3161 22.4824 10.374 22.2079C10.4299 21.9433 10.6325 21.6237 10.6468 21.6017C10.6413 21.6156 10.5955 21.7282 10.5821 21.8225Z" fill="#262626"/>
<path id="path650" d="M9.6369 22.3817C9.63705 22.382 9.63736 22.3822 9.63736 22.3827C9.64668 22.4075 9.78308 22.7621 9.96043 22.9622C10.1446 23.1693 10.216 23.5792 10.216 23.5792C10.216 23.5792 9.86252 23.3945 9.7643 23.1932C9.64576 22.9511 9.6369 22.3989 9.6369 22.3817Z" fill="#929292"/>
<path id="path652" d="M9.77505 22.5645C9.90366 22.6906 10.0224 22.7851 10.1531 22.9449C10.2295 23.038 10.2854 23.3342 10.2516 23.4803C10.2463 23.5429 10.2159 23.5792 10.2159 23.5792C10.2159 23.5792 10.1446 23.1693 9.96033 22.9622C9.78299 22.7621 9.64659 22.4075 9.63727 22.3827C9.64521 22.3951 9.70799 22.4987 9.77505 22.5645Z" fill="#262626"/>
<path id="path654" d="M10.5798 22.3905C10.5796 22.391 10.5798 22.3913 10.5796 22.3916C10.5706 22.4166 10.4455 22.7756 10.4506 23.0464C10.4561 23.3271 10.2468 23.6836 10.2468 23.6836C10.2468 23.6836 10.0997 23.3045 10.1551 23.0867C10.2213 22.8242 10.5688 22.4036 10.5798 22.3905Z" fill="#929292"/>
<path id="path656" d="M10.5664 22.6218C10.5821 22.8039 10.6106 22.9555 10.6065 23.1645C10.6041 23.2864 10.4561 23.5468 10.3369 23.6336C10.2929 23.677 10.2468 23.6836 10.2468 23.6836C10.2468 23.6836 10.4561 23.3271 10.4506 23.0464C10.4455 22.7756 10.5706 22.4166 10.5796 22.3916C10.5775 22.4064 10.5581 22.5268 10.5664 22.6218Z" fill="#262626"/>
<path id="path658" d="M9.74815 23.333C9.74831 23.3335 9.74861 23.3335 9.74877 23.3339C9.76068 23.3575 9.9339 23.6947 10.1317 23.8733C10.3369 24.0584 10.4514 24.4579 10.4514 24.4579C10.4514 24.4579 10.0804 24.3141 9.96139 24.1253C9.81765 23.898 9.74999 23.3501 9.74815 23.333Z" fill="#929292"/>
<path id="path660" d="M9.90494 23.4992C10.0462 23.6099 10.1742 23.6904 10.3213 23.8343C10.4072 23.9183 10.4942 24.2066 10.4764 24.3555C10.4777 24.4182 10.4513 24.4579 10.4513 24.4579C10.4513 24.4579 10.3368 24.0584 10.1316 23.8733C9.9338 23.6947 9.76059 23.3575 9.74867 23.3339C9.75784 23.3454 9.83131 23.4413 9.90494 23.4992Z" fill="#262626"/>
<path id="path662" d="M10.6863 23.2352C10.6861 23.2356 10.6863 23.236 10.6861 23.2364C10.6799 23.2622 10.5939 23.6332 10.6278 23.9018C10.6632 24.1801 10.4932 24.5582 10.4932 24.5582C10.4932 24.5582 10.3066 24.1981 10.3383 23.9752C10.3762 23.7069 10.6767 23.2493 10.6863 23.2352Z" fill="#929292"/>
<path id="path664" d="M10.6976 23.4667C10.7327 23.6459 10.7772 23.7933 10.7954 24.0015C10.806 24.1229 10.6866 24.3986 10.5775 24.4983C10.5384 24.5464 10.4932 24.5582 10.4932 24.5582C10.4932 24.5582 10.6632 24.1801 10.6278 23.9018C10.5939 23.6332 10.6799 23.2622 10.6861 23.2364C10.6857 23.2512 10.6793 23.3731 10.6976 23.4667Z" fill="#262626"/>
<path id="path666" d="M9.99376 24.266C9.99391 24.2665 9.99421 24.2665 9.99452 24.2668C10.0104 24.2878 10.2414 24.586 10.4679 24.7237C10.7028 24.8666 10.8873 25.237 10.8873 25.237C10.8873 25.237 10.4968 25.1668 10.3458 25.0038C10.1638 24.8081 9.99865 24.2825 9.99376 24.266Z" fill="#929292"/>
<path id="path668" d="M10.1776 24.3993C10.3365 24.4811 10.4769 24.5358 10.6473 24.6494C10.7468 24.7155 10.8842 24.982 10.8934 25.1319C10.9061 25.1932 10.8873 25.237 10.8873 25.237C10.8873 25.237 10.7028 24.8666 10.4678 24.7237C10.2413 24.586 10.0104 24.2878 9.99448 24.2668C10.0055 24.2764 10.0948 24.3566 10.1776 24.3993Z" fill="#262626"/>
<path id="path670" d="M10.8979 23.9909C10.8977 23.9914 10.898 23.9916 10.8979 23.992C10.8965 24.0186 10.8786 24.3996 10.9604 24.6571C11.0453 24.9239 10.9463 25.3276 10.9463 25.3276C10.9463 25.3276 10.6981 25.0093 10.6892 24.7845C10.6781 24.5135 10.891 24.0067 10.8979 23.9909Z" fill="#929292"/>
<path id="path672" d="M10.9507 24.2161C11.0175 24.3855 11.0879 24.522 11.1432 24.723C11.1754 24.8402 11.1077 25.1339 11.0185 25.2528C10.9887 25.3075 10.9464 25.3276 10.9464 25.3276C10.9464 25.3276 11.0454 24.9239 10.9605 24.6571C10.8788 24.3996 10.8966 24.0186 10.898 23.992C10.9002 24.0067 10.9159 24.1277 10.9507 24.2161Z" fill="#262626"/>
<path id="path674" d="M10.3763 25.1216C10.3766 25.1219 10.3769 25.1219 10.3772 25.1223C10.3965 25.14 10.6746 25.3921 10.921 25.4868C11.1766 25.5851 11.4214 25.9165 11.4214 25.9165C11.4214 25.9165 11.0249 25.9178 10.8486 25.7845C10.636 25.6245 10.3839 25.1369 10.3763 25.1216Z" fill="#929292"/>
<path id="path676" d="M10.5803 25.2198C10.7506 25.2717 10.898 25.3002 11.0851 25.3811C11.1944 25.4282 11.3751 25.6658 11.4096 25.8118C11.4325 25.87 11.4215 25.9165 11.4215 25.9165C11.4215 25.9165 11.1766 25.5851 10.9211 25.4868C10.6747 25.3921 10.3965 25.14 10.3773 25.1223C10.3898 25.1298 10.4914 25.1925 10.5803 25.2198Z" fill="#262626"/>
<path id="path678" d="M11.2198 24.6877C11.2198 24.6882 11.2201 24.6884 11.2201 24.6888C11.2231 24.7152 11.2705 25.0936 11.3948 25.3322C11.5237 25.5797 11.4949 25.9951 11.4949 25.9951C11.4949 25.9951 11.1964 25.7264 11.1493 25.5066C11.0924 25.2419 11.2158 24.7044 11.2198 24.6877Z" fill="#929292"/>
<path id="path680" d="M11.3101 24.8999C11.4046 25.0546 11.4972 25.1763 11.5858 25.3642C11.6376 25.474 11.6209 25.7753 11.5533 25.9084C11.5333 25.9677 11.4949 25.9951 11.4949 25.9951C11.4949 25.9951 11.5238 25.5797 11.3949 25.3322C11.2705 25.0936 11.2232 24.7152 11.2201 24.6888C11.2247 24.7028 11.2609 24.8192 11.3101 24.8999Z" fill="#262626"/>
<path id="path682" d="M11.0027 25.9758C11.0031 25.976 11.0034 25.976 11.0037 25.9761C11.0266 25.9886 11.3561 26.1631 11.6174 26.1934C11.8885 26.2245 12.2044 26.4846 12.2044 26.4846C12.2044 26.4846 11.8203 26.5851 11.6176 26.5001C11.3736 26.3984 11.0137 25.9887 11.0027 25.9758Z" fill="#929292"/>
<path id="path684" d="M11.2236 26.0197C11.4011 26.0275 11.5508 26.0182 11.7515 26.0496C11.8685 26.068 12.1001 26.2531 12.1681 26.386C12.2041 26.4365 12.2044 26.4846 12.2044 26.4846C12.2044 26.4846 11.8885 26.2245 11.6174 26.1934C11.3561 26.1632 11.0266 25.9887 11.0037 25.9762C11.0176 25.9803 11.1311 26.0157 11.2236 26.0197Z" fill="#262626"/>
<path id="path686" d="M11.7181 25.3434C11.7182 25.3437 11.7184 25.3439 11.7185 25.3443C11.7277 25.3692 11.8633 25.7242 12.0404 25.9244C12.224 26.1322 12.2944 26.5423 12.2944 26.5423C12.2944 26.5423 11.9412 26.3566 11.8436 26.1552C11.7256 25.9128 11.7181 25.3605 11.7181 25.3434Z" fill="#929292"/>
<path id="path688" d="M11.8559 25.5266C11.9842 25.6529 12.1027 25.7477 12.2332 25.9078C12.3092 26.001 12.3644 26.2974 12.3303 26.4436C12.325 26.506 12.2944 26.5423 12.2944 26.5423C12.2944 26.5423 12.224 26.1322 12.0404 25.9244C11.8633 25.7242 11.7277 25.3692 11.7185 25.3443C11.7263 25.3568 11.789 25.4605 11.8559 25.5266Z" fill="#262626"/>
<path id="path690" d="M11.6856 26.5876C11.6861 26.5879 11.6864 26.5877 11.6867 26.5881C11.7101 26.5995 12.0455 26.7617 12.3078 26.782C12.5797 26.8029 12.9046 27.051 12.9046 27.051C12.9046 27.051 12.5242 27.166 12.3188 27.0886C12.0713 26.996 11.6972 26.6002 11.6856 26.5876Z" fill="#929292"/>
<path id="path692" d="M11.908 26.6233C12.0856 26.6242 12.235 26.6094 12.4365 26.6334C12.5543 26.6473 12.7921 26.8236 12.8648 26.9538C12.9025 27.003 12.9045 27.051 12.9045 27.051C12.9045 27.051 12.5796 26.8029 12.3077 26.782C12.0455 26.7617 11.71 26.5995 11.6866 26.588C11.7007 26.5915 11.8154 26.6226 11.908 26.6233Z" fill="#262626"/>
<path id="path694" d="M12.3781 25.9288C12.3783 25.9291 12.3786 25.9293 12.3787 25.9297C12.3888 25.9541 12.5368 26.304 12.7207 26.4975C12.9117 26.6981 12.9964 27.1053 12.9964 27.1053C12.9964 27.1053 12.637 26.9331 12.5324 26.7354C12.4058 26.4976 12.3787 25.946 12.3781 25.9288Z" fill="#929292"/>
<path id="path696" d="M12.5223 26.1067C12.655 26.2281 12.7768 26.3185 12.9127 26.4736C12.9923 26.564 13.0578 26.8581 13.0288 27.0053C13.0258 27.068 12.9964 27.1053 12.9964 27.1053C12.9964 27.1053 12.9117 26.6981 12.7207 26.4975C12.5368 26.304 12.3888 25.9541 12.3787 25.9297C12.387 25.9419 12.4531 26.0433 12.5223 26.1067Z" fill="#262626"/>
<path id="path698" d="M12.5634 27.1677C12.5637 27.1677 12.564 27.1676 12.5644 27.1677C12.5898 27.1723 12.9553 27.2353 13.2132 27.182C13.4806 27.1267 13.8585 27.2754 13.8585 27.2754C13.8585 27.2754 13.5222 27.4917 13.3042 27.4743C13.0416 27.4539 12.5777 27.1765 12.5634 27.1677Z" fill="#929292"/>
<path id="path700" d="M12.7868 27.1402C12.9581 27.092 13.098 27.0361 13.2984 27.0033C13.4152 26.9839 13.6905 27.0877 13.7947 27.1931C13.844 27.2299 13.8585 27.2755 13.8585 27.2755C13.8585 27.2755 13.4806 27.1267 13.2132 27.182C12.9553 27.2354 12.5898 27.1723 12.5644 27.1677C12.5788 27.1673 12.6975 27.1654 12.7868 27.1402Z" fill="#262626"/>
<path id="path702" d="M13.5934 27.5377C13.5939 27.5377 13.5942 27.5376 13.5945 27.5376C13.6203 27.5377 13.9909 27.5368 14.2365 27.4399C14.4912 27.3392 14.8879 27.4207 14.8879 27.4207C14.8879 27.4207 14.5915 27.692 14.3737 27.7123C14.1116 27.7374 13.609 27.5438 13.5934 27.5377Z" fill="#929292"/>
<path id="path704" d="M13.8093 27.4722C13.9703 27.395 14.0991 27.3158 14.2914 27.2488C14.4035 27.2097 14.6918 27.2645 14.8115 27.3504C14.8661 27.3783 14.8878 27.4208 14.8878 27.4208C14.8878 27.4208 14.4911 27.3392 14.2364 27.4399C13.9908 27.5368 13.6202 27.5377 13.5944 27.5376C13.6086 27.5346 13.7252 27.5124 13.8093 27.4722Z" fill="#262626"/>
<path id="path706" d="M13.0578 26.3409C13.0579 26.3414 13.0582 26.3414 13.0585 26.3417C13.0746 26.3624 13.3087 26.6582 13.5366 26.7935C13.7729 26.9337 13.9613 27.3022 13.9613 27.3022C13.9613 27.3022 13.5701 27.2361 13.4175 27.0748C13.2334 26.8811 13.0628 26.3574 13.0578 26.3409Z" fill="#929292"/>
<path id="path708" d="M13.243 26.4722C13.4028 26.5524 13.5436 26.6055 13.7152 26.717C13.8154 26.7821 13.9556 27.0471 13.9663 27.197C13.9797 27.2581 13.9613 27.3022 13.9613 27.3022C13.9613 27.3022 13.7729 26.9337 13.5366 26.7935C13.3087 26.6582 13.0745 26.3624 13.0585 26.3417C13.0697 26.3511 13.1599 26.4304 13.243 26.4722Z" fill="#262626"/>
<path id="path710" d="M13.9318 26.7306C13.9321 26.7309 13.9323 26.7309 13.9326 26.7312C13.9495 26.7464 14.1952 26.9647 14.4118 27.0455C14.6363 27.1294 14.8534 27.4175 14.8534 27.4175C14.8534 27.4175 14.5062 27.4218 14.3507 27.3069C14.1632 27.1687 13.9387 26.7439 13.9318 26.7306Z" fill="#929292"/>
<path id="path712" d="M14.111 26.8147C14.2605 26.8587 14.3898 26.8823 14.5543 26.9517C14.6504 26.9919 14.8104 27.1984 14.8419 27.3259C14.8625 27.3765 14.8532 27.4175 14.8532 27.4175C14.8532 27.4175 14.6362 27.1294 14.4116 27.0455C14.195 26.9647 13.9494 26.7464 13.9324 26.7312C13.9434 26.7374 14.0329 26.7918 14.111 26.8147Z" fill="#262626"/>
<path id="path714" d="M14.3153 27.7783C14.3154 27.7781 14.3154 27.778 14.3157 27.7778C14.3276 27.7719 14.4989 27.6841 14.5908 27.5814C14.6863 27.4748 14.8878 27.419 14.8878 27.419C14.8878 27.419 14.8111 27.6141 14.7149 27.675C14.5992 27.7485 14.3238 27.7774 14.3153 27.7783Z" fill="#929292"/>
<path id="path716" d="M14.4005 27.697C14.4578 27.6234 14.4998 27.5565 14.5737 27.4802C14.6169 27.4355 14.7623 27.3929 14.8369 27.4044C14.8684 27.4044 14.8878 27.419 14.8878 27.419C14.8878 27.419 14.6863 27.4748 14.5908 27.5815C14.4989 27.6841 14.3276 27.7719 14.3157 27.7778C14.3215 27.7733 14.3705 27.7354 14.4005 27.697Z" fill="#262626"/>
<path id="path718" d="M19.9788 20.4326C19.9788 20.4331 19.9786 20.4334 19.9786 20.4339C19.9789 20.4605 19.9805 20.842 19.8879 21.0953C19.7917 21.3581 19.8734 21.766 19.8734 21.766C19.8734 21.766 20.1349 21.4592 20.1534 21.2348C20.1761 20.9648 19.9849 20.4487 19.9788 20.4326Z" fill="#929292"/>
<path id="path720" d="M19.9166 20.6553C19.8426 20.8215 19.7666 20.9547 19.7027 21.153C19.6654 21.2688 19.7206 21.5652 19.8046 21.6879C19.8321 21.744 19.8735 21.766 19.8735 21.766C19.8735 21.766 19.7918 21.3581 19.888 21.0953C19.9806 20.842 19.979 20.4605 19.9787 20.4339C19.976 20.4484 19.9551 20.5685 19.9166 20.6553Z" fill="#262626"/>
<path id="path722" d="M19.1066 20.8017C19.1069 20.802 19.1069 20.8023 19.1072 20.8027C19.1244 20.8223 19.3702 21.1079 19.4632 21.3612C19.5595 21.6239 19.8824 21.8747 19.8824 21.8747C19.8824 21.8747 19.8821 21.4666 19.7521 21.2854C19.596 21.0672 19.1214 20.8094 19.1066 20.8017Z" fill="#929292"/>
<path id="path724" d="M19.2026 21.0112C19.2536 21.1864 19.2819 21.338 19.3613 21.5305C19.4075 21.6427 19.6389 21.8278 19.7808 21.8629C19.8373 21.8863 19.8825 21.8747 19.8825 21.8747C19.8825 21.8747 19.5596 21.6239 19.4634 21.3613C19.3703 21.1079 19.1246 20.8223 19.1073 20.8027C19.1146 20.8154 19.1759 20.9198 19.2026 21.0112Z" fill="#262626"/>
<path id="path726" d="M20.2095 21.3672C20.2095 21.3675 20.2093 21.3678 20.2093 21.3682C20.2058 21.3946 20.1531 21.7722 20.0254 22.009C19.8928 22.2545 19.9157 22.6703 19.9157 22.6703C19.9157 22.6703 20.218 22.4062 20.2681 22.187C20.3291 21.9233 20.2134 21.3839 20.2095 21.3672Z" fill="#929292"/>
<path id="path728" d="M20.1163 21.5779C20.0194 21.7313 19.9253 21.8516 19.834 22.0381C19.7805 22.1471 19.7929 22.4485 19.8587 22.5825C19.8778 22.6421 19.9157 22.6703 19.9157 22.6703C19.9157 22.6703 19.8928 22.2545 20.0254 22.009C20.1531 21.7722 20.2058 21.3946 20.2093 21.3682C20.2044 21.3823 20.1667 21.4981 20.1163 21.5779Z" fill="#262626"/>
<path id="path730" d="M19.2942 21.6006C19.2945 21.6011 19.2945 21.6014 19.2948 21.6017C19.309 21.6237 19.5116 21.9433 19.5675 22.208C19.6254 22.4824 19.9092 22.7791 19.9092 22.7791C19.9092 22.7791 19.9669 22.3754 19.8641 22.1767C19.7407 21.9372 19.308 21.6107 19.2942 21.6006Z" fill="#929292"/>
<path id="path732" d="M19.3595 21.8225C19.3851 22.0034 19.3914 22.1578 19.4426 22.36C19.4722 22.478 19.6749 22.6961 19.8102 22.7521C19.8628 22.7838 19.9092 22.7791 19.9092 22.7791C19.9092 22.7791 19.6254 22.4824 19.5675 22.2079C19.5116 21.9433 19.3091 21.6237 19.2949 21.6017C19.3002 21.6156 19.346 21.7282 19.3595 21.8225Z" fill="#262626"/>
<path id="path734" d="M20.3046 22.3817C20.3045 22.382 20.3043 22.3822 20.3041 22.3827C20.2948 22.4075 20.1586 22.7621 19.9811 22.9622C19.797 23.1693 19.7255 23.5792 19.7255 23.5792C19.7255 23.5792 20.0791 23.3945 20.1772 23.1932C20.2957 22.9511 20.3046 22.3989 20.3046 22.3817Z" fill="#929292"/>
<path id="path736" d="M20.1666 22.5645C20.0378 22.6906 19.9192 22.7851 19.7883 22.9449C19.712 23.038 19.6562 23.3342 19.69 23.4803C19.6952 23.5429 19.7256 23.5792 19.7256 23.5792C19.7256 23.5792 19.797 23.1693 19.9811 22.9622C20.1586 22.7621 20.2949 22.4075 20.3042 22.3827C20.2964 22.3951 20.2336 22.4987 20.1666 22.5645Z" fill="#262626"/>
<path id="path738" d="M19.3617 22.3905C19.3618 22.391 19.3618 22.3913 19.362 22.3916C19.3709 22.4166 19.4961 22.7756 19.4909 23.0464C19.4856 23.3271 19.6948 23.6836 19.6948 23.6836C19.6948 23.6836 19.8418 23.3045 19.7865 23.0867C19.7202 22.8242 19.3727 22.4036 19.3617 22.3905Z" fill="#929292"/>
<path id="path740" d="M19.3754 22.6218C19.3595 22.8039 19.3309 22.9555 19.3352 23.1645C19.3375 23.2864 19.4856 23.5468 19.6046 23.6336C19.6486 23.677 19.6949 23.6836 19.6949 23.6836C19.6949 23.6836 19.4856 23.3271 19.491 23.0464C19.4962 22.7756 19.3709 22.4166 19.3621 22.3916C19.3642 22.4064 19.3834 22.5268 19.3754 22.6218Z" fill="#262626"/>
<path id="path742" d="M20.1935 23.333C20.1933 23.3335 20.193 23.3335 20.1929 23.3339C20.1811 23.3575 20.0078 23.6947 19.8099 23.8733C19.605 24.0584 19.4902 24.4579 19.4902 24.4579C19.4902 24.4579 19.8613 24.3141 19.9803 24.1253C20.124 23.898 20.1917 23.3501 20.1935 23.333Z" fill="#929292"/>
<path id="path744" d="M20.0368 23.4992C19.8954 23.6099 19.7674 23.6904 19.6203 23.8343C19.5344 23.9183 19.4473 24.2066 19.4654 24.3555C19.4638 24.4182 19.4903 24.4579 19.4903 24.4579C19.4903 24.4579 19.605 24.0584 19.81 23.8733C20.0078 23.6947 20.1812 23.3575 20.1929 23.3339C20.1839 23.3454 20.1104 23.4413 20.0368 23.4992Z" fill="#262626"/>
<path id="path746" d="M19.2553 23.2352C19.2554 23.2356 19.2553 23.236 19.2554 23.2364C19.2617 23.2622 19.3477 23.6332 19.3138 23.9018C19.2785 24.1801 19.4485 24.5582 19.4485 24.5582C19.4485 24.5582 19.635 24.1981 19.6032 23.9752C19.5655 23.7069 19.2649 23.2493 19.2553 23.2352Z" fill="#929292"/>
<path id="path748" d="M19.2441 23.4667C19.2088 23.6459 19.1644 23.7933 19.1464 24.0015C19.1357 24.1229 19.255 24.3986 19.3642 24.4983C19.4033 24.5464 19.4485 24.5582 19.4485 24.5582C19.4485 24.5582 19.2785 24.1801 19.3138 23.9018C19.3477 23.6332 19.2617 23.2622 19.2554 23.2364C19.256 23.2512 19.2623 23.3731 19.2441 23.4667Z" fill="#262626"/>
<path id="path750" d="M19.9479 24.266C19.9476 24.2665 19.9473 24.2665 19.947 24.2668C19.9313 24.2878 19.7002 24.586 19.4736 24.7237C19.2389 24.8666 19.0542 25.237 19.0542 25.237C19.0542 25.237 19.4448 25.1668 19.5957 25.0038C19.7777 24.8081 19.943 24.2825 19.9479 24.266Z" fill="#929292"/>
<path id="path752" d="M19.7639 24.3993C19.605 24.4811 19.4648 24.5358 19.2943 24.6494C19.1947 24.7155 19.0573 24.982 19.0481 25.1319C19.0354 25.1932 19.0542 25.237 19.0542 25.237C19.0542 25.237 19.2389 24.8666 19.4737 24.7237C19.7002 24.586 19.9313 24.2878 19.947 24.2668C19.936 24.2764 19.8467 24.3566 19.7639 24.3993Z" fill="#262626"/>
<path id="path754" d="M19.0436 23.9909C19.0436 23.9914 19.0435 23.9916 19.0435 23.992C19.045 24.0186 19.0627 24.3996 18.981 24.6571C18.8961 24.9239 18.9951 25.3276 18.9951 25.3276C18.9951 25.3276 19.2433 25.0093 19.2521 24.7845C19.2634 24.5135 19.0504 24.0067 19.0436 23.9909Z" fill="#929292"/>
<path id="path756" d="M18.9908 24.2161C18.9241 24.3855 18.8538 24.522 18.7985 24.723C18.7661 24.8402 18.8338 25.1339 18.9232 25.2528C18.9528 25.3075 18.9951 25.3276 18.9951 25.3276C18.9951 25.3276 18.8961 24.9239 18.9811 24.6571C19.0628 24.3996 19.0451 24.0186 19.0435 23.992C19.0414 24.0067 19.0256 24.1277 18.9908 24.2161Z" fill="#262626"/>
<path id="path758" d="M19.5652 25.1216C19.5649 25.1219 19.5646 25.1219 19.5643 25.1223C19.5452 25.14 19.2669 25.3921 19.0205 25.4868C18.7649 25.5851 18.5202 25.9165 18.5202 25.9165C18.5202 25.9165 18.9166 25.9178 19.0929 25.7845C19.3055 25.6245 19.5576 25.1369 19.5652 25.1216Z" fill="#929292"/>
<path id="path760" d="M19.3614 25.2198C19.1911 25.2717 19.0436 25.3002 18.8564 25.3811C18.7472 25.4282 18.5665 25.6658 18.532 25.8118C18.5091 25.87 18.5202 25.9165 18.5202 25.9165C18.5202 25.9165 18.7649 25.5851 19.0205 25.4868C19.2669 25.3921 19.5452 25.14 19.5643 25.1223C19.5519 25.1298 19.4502 25.1925 19.3614 25.2198Z" fill="#262626"/>
<path id="path762" d="M18.7217 24.6877C18.7217 24.6882 18.7214 24.6884 18.7214 24.6888C18.7184 24.7152 18.671 25.0936 18.5468 25.3322C18.4177 25.5797 18.4466 25.9951 18.4466 25.9951C18.4466 25.9951 18.7451 25.7264 18.7921 25.5066C18.8493 25.2419 18.7258 24.7044 18.7217 24.6877Z" fill="#929292"/>
<path id="path764" d="M18.6315 24.8999C18.537 25.0546 18.4445 25.1763 18.3559 25.3642C18.304 25.474 18.3208 25.7753 18.3885 25.9084C18.4083 25.9677 18.4467 25.9951 18.4467 25.9951C18.4467 25.9951 18.4178 25.5797 18.5469 25.3322C18.6711 25.0936 18.7184 24.7152 18.7215 24.6888C18.7169 24.7028 18.6808 24.8192 18.6315 24.8999Z" fill="#262626"/>
<path id="path766" d="M18.939 25.9758C18.9385 25.976 18.9382 25.976 18.9379 25.9761C18.9151 25.9886 18.5855 26.1631 18.3241 26.1934C18.0532 26.2245 17.7371 26.4846 17.7371 26.4846C17.7371 26.4846 18.1214 26.5851 18.324 26.5001C18.5681 26.3984 18.9278 25.9887 18.939 25.9758Z" fill="#929292"/>
<path id="path768" d="M18.7179 26.0197C18.5406 26.0275 18.3907 26.0182 18.1902 26.0496C18.073 26.068 17.8416 26.2531 17.7735 26.386C17.7374 26.4365 17.7371 26.4846 17.7371 26.4846C17.7371 26.4846 18.0532 26.2245 18.3241 26.1934C18.5855 26.1632 18.9151 25.9887 18.9379 25.9762C18.924 25.9803 18.8105 26.0157 18.7179 26.0197Z" fill="#262626"/>
<path id="path770" d="M18.2236 25.3434C18.2234 25.3437 18.2231 25.3439 18.223 25.3443C18.2138 25.3692 18.0783 25.7242 17.9013 25.9244C17.7177 26.1322 17.6472 26.5423 17.6472 26.5423C17.6472 26.5423 18.0003 26.3566 18.0979 26.1552C18.2159 25.9128 18.2236 25.3605 18.2236 25.3434Z" fill="#929292"/>
<path id="path772" d="M18.0858 25.5266C17.9573 25.6529 17.839 25.7477 17.7085 25.9078C17.6323 26.001 17.5771 26.2974 17.6112 26.4436C17.6166 26.506 17.6473 26.5423 17.6473 26.5423C17.6473 26.5423 17.7177 26.1322 17.9013 25.9244C18.0783 25.7242 18.2138 25.3692 18.223 25.3443C18.2152 25.3568 18.1527 25.4605 18.0858 25.5266Z" fill="#262626"/>
<path id="path774" d="M18.2559 26.5876C18.2555 26.5879 18.2552 26.5877 18.2549 26.5881C18.2316 26.5995 17.8962 26.7617 17.6338 26.782C17.3619 26.8029 17.037 27.051 17.037 27.051C17.037 27.051 17.4173 27.166 17.6228 27.0886C17.8704 26.996 18.2445 26.6002 18.2559 26.5876Z" fill="#929292"/>
<path id="path776" d="M18.0335 26.6233C17.8559 26.6242 17.7066 26.6094 17.505 26.6334C17.3874 26.6473 17.1494 26.8236 17.0769 26.9538C17.039 27.003 17.037 27.051 17.037 27.051C17.037 27.051 17.3619 26.8029 17.6338 26.782C17.8962 26.7617 18.2316 26.5995 18.2549 26.588C18.2408 26.5915 18.1262 26.6226 18.0335 26.6233Z" fill="#262626"/>
<path id="path778" d="M17.5634 25.9288C17.5632 25.9291 17.5629 25.9293 17.5628 25.9297C17.5527 25.9541 17.4048 26.304 17.2208 26.4975C17.03 26.6981 16.9451 27.1053 16.9451 27.1053C16.9451 27.1053 17.3045 26.9331 17.4093 26.7354C17.5357 26.4976 17.5628 25.946 17.5634 25.9288Z" fill="#929292"/>
<path id="path780" d="M17.4192 26.1067C17.2865 26.2281 17.1647 26.3185 17.0288 26.4736C16.9494 26.564 16.8838 26.8581 16.9127 27.0053C16.9158 27.068 16.9451 27.1053 16.9451 27.1053C16.9451 27.1053 17.03 26.6981 17.2208 26.4975C17.4049 26.304 17.5527 25.9541 17.5628 25.9297C17.5546 25.9419 17.4884 26.0433 17.4192 26.1067Z" fill="#262626"/>
<path id="path782" d="M17.3783 27.1677C17.3778 27.1677 17.3775 27.1676 17.3771 27.1677C17.3517 27.1723 16.9862 27.2353 16.7284 27.182C16.4609 27.1267 16.0831 27.2754 16.0831 27.2754C16.0831 27.2754 16.4193 27.4917 16.6375 27.4743C16.9 27.4539 17.3639 27.1765 17.3783 27.1677Z" fill="#929292"/>
<path id="path784" d="M17.1548 27.1402C16.9834 27.092 16.8437 27.0361 16.6431 27.0033C16.5263 26.9839 16.251 27.0877 16.1468 27.1931C16.0976 27.2299 16.0831 27.2755 16.0831 27.2755C16.0831 27.2755 16.4609 27.1267 16.7284 27.182C16.9862 27.2354 17.3517 27.1723 17.3771 27.1677C17.3627 27.1673 17.2442 27.1654 17.1548 27.1402Z" fill="#262626"/>
<path id="path786" d="M16.8839 26.3409C16.8836 26.3414 16.8833 26.3414 16.883 26.3417C16.8669 26.3624 16.6328 26.6582 16.405 26.7935C16.1686 26.9337 15.9802 27.3022 15.9802 27.3022C15.9802 27.3022 16.3714 27.2361 16.524 27.0748C16.7082 26.8811 16.8787 26.3574 16.8839 26.3409Z" fill="#929292"/>
<path id="path788" d="M16.6986 26.4722C16.5389 26.5524 16.398 26.6055 16.2264 26.717C16.1262 26.7821 15.986 27.0471 15.9753 27.197C15.962 27.2581 15.9803 27.3022 15.9803 27.3022C15.9803 27.3022 16.1687 26.9337 16.4051 26.7935C16.6329 26.6582 16.8671 26.3624 16.8831 26.3417C16.8721 26.3511 16.7818 26.4304 16.6986 26.4722Z" fill="#262626"/>
<path id="path790" d="M16.488 27.5357C16.4876 27.5357 16.4873 27.5356 16.4868 27.5356C16.461 27.5356 16.0906 27.5321 15.8456 27.4333C15.5917 27.331 15.1944 27.4096 15.1944 27.4096C15.1944 27.4096 15.4889 27.6829 15.7066 27.7048C15.9685 27.7318 16.4723 27.5419 16.488 27.5357Z" fill="#929292"/>
<path id="path792" d="M16.2725 27.4687C16.1121 27.3902 15.9838 27.3102 15.792 27.242C15.6801 27.202 15.3914 27.2548 15.2712 27.3398C15.2164 27.3673 15.1944 27.4096 15.1944 27.4096C15.1944 27.4096 15.5917 27.331 15.8456 27.4333C16.0906 27.5321 16.461 27.5355 16.4868 27.5355C16.4728 27.5326 16.3564 27.5094 16.2725 27.4687Z" fill="#262626"/>
<path id="path794" d="M16.0097 26.7306C16.0096 26.7309 16.0092 26.7309 16.0089 26.7312C15.992 26.7464 15.7464 26.9647 15.5298 27.0455C15.3054 27.1294 15.0883 27.4175 15.0883 27.4175C15.0883 27.4175 15.4354 27.4218 15.5909 27.3069C15.7783 27.1687 16.003 26.7439 16.0097 26.7306Z" fill="#929292"/>
<path id="path796" d="M15.8306 26.8147C15.681 26.8587 15.5517 26.8823 15.3872 26.9517C15.2912 26.9919 15.131 27.1984 15.0997 27.3259C15.0791 27.3765 15.0884 27.4175 15.0884 27.4175C15.0884 27.4175 15.3054 27.1294 15.5298 27.0455C15.7464 26.9647 15.992 26.7464 16.009 26.7312C15.998 26.7374 15.9085 26.7918 15.8306 26.8147Z" fill="#262626"/>
<path id="path798" d="M15.6263 27.7783C15.626 27.7781 15.626 27.778 15.6259 27.7778C15.6138 27.7719 15.4426 27.6841 15.3506 27.5814C15.2553 27.4748 15.0536 27.419 15.0536 27.419C15.0536 27.419 15.1303 27.6141 15.2266 27.675C15.3422 27.7485 15.6176 27.7774 15.6263 27.7783Z" fill="#929292"/>
<path id="path800" d="M15.5409 27.697C15.4838 27.6234 15.4418 27.5565 15.3677 27.4802C15.3246 27.4355 15.1791 27.3929 15.1045 27.4044C15.0732 27.4044 15.0536 27.419 15.0536 27.419C15.0536 27.419 15.2553 27.4748 15.3506 27.5815C15.4426 27.6841 15.6138 27.7719 15.6259 27.7778C15.6199 27.7733 15.5709 27.7354 15.5409 27.697Z" fill="#262626"/>
<path id="path802" d="M12.4652 14.4197C9.68087 14.9989 7.56773 16.7088 6.37307 18.7825C5.3889 20.4889 5.24928 21.8612 5.66537 23.4883C7.67572 31.6908 10.5306 27.3789 14.3662 31.3758C14.399 31.4107 14.3938 31.4552 14.3666 31.4816L14.075 31.7637C14.0482 31.7897 14.0049 31.7914 13.9759 31.7606C11.6107 29.3225 9.77604 30.2504 7.89476 28.8989C6.29745 27.7374 5.60611 25.3117 5.17047 23.2936C4.74582 21.3153 5.32215 19.5489 6.54537 17.8885C6.61854 17.7857 6.84949 17.5032 6.88768 17.4592C8.38845 15.7767 10.1408 14.6944 12.4652 14.4197Z" fill="#929292"/>
<path id="path804" d="M4.24143 16.7401C4.24113 16.7415 4.24158 16.7423 4.24128 16.7436C4.22829 16.826 4.05339 18.01 4.22783 18.8407C4.409 19.7022 3.9732 20.9301 3.9732 20.9301C3.9732 20.9301 3.2982 19.8538 3.34097 19.1483C3.39107 18.2988 4.21516 16.7868 4.24143 16.7401Z" fill="#929292"/>
<path id="path806" d="M4.33535 17.4608C4.49085 18.012 4.66743 18.4614 4.77695 19.1076C4.84126 19.4846 4.53759 20.3787 4.2217 20.7201C4.11157 20.8812 3.97318 20.9301 3.97318 20.9301C3.97318 20.9301 4.40897 19.7022 4.22781 18.8407C4.05337 18.01 4.22827 16.826 4.24125 16.7436C4.24339 16.7903 4.25454 17.1732 4.33535 17.4608Z" fill="#262626"/>
<path id="path808" d="M6.00078 18.1705C6.00016 18.1717 6.00062 18.1725 6.00001 18.1739C5.97313 18.2526 5.59675 19.3856 5.62517 20.2353C5.65495 21.1161 5.01432 22.2447 5.01432 22.2447C5.01432 22.2447 4.5356 21.0623 4.6995 20.3759C4.89517 19.549 5.96687 18.2115 6.00078 18.1705Z" fill="#929292"/>
<path id="path810" d="M5.96893 18.8969C6.02697 19.4677 6.12335 19.9423 6.11969 20.5982C6.11785 20.9808 5.66495 21.8055 5.2953 22.0837C5.15919 22.2219 5.01439 22.2447 5.01439 22.2447C5.01439 22.2447 5.65502 21.1161 5.62524 20.2353C5.59683 19.3856 5.9732 18.2526 6.00008 18.1739C5.99413 18.2202 5.93914 18.5992 5.96893 18.8969Z" fill="#262626"/>
<path id="path812" d="M2.49275 19.0014C2.49321 19.0025 2.49397 19.0028 2.49443 19.0039C2.52391 19.0681 2.9565 19.9844 3.46837 20.48C3.99933 20.9934 4.26985 22.0703 4.26985 22.0703C4.26985 22.0703 3.29209 21.6518 2.99133 21.1362C2.62809 20.5161 2.49627 19.0472 2.49275 19.0014Z" fill="#929292"/>
<path id="path814" d="M2.89658 19.4597C3.26394 19.7685 3.59862 19.9956 3.97836 20.3939C4.20015 20.6261 4.40682 21.4035 4.34541 21.7997C4.34389 21.9673 4.2698 22.0703 4.2698 22.0703C4.2698 22.0703 3.99928 20.9934 3.46832 20.48C2.95645 19.9844 2.52387 19.0681 2.49438 19.0039C2.5176 19.0355 2.70518 19.2983 2.89658 19.4597Z" fill="#262626"/>
<path id="path816" d="M2.18739 21.6043C2.18816 21.6053 2.18892 21.6054 2.18968 21.6064C2.23551 21.6646 2.90211 22.4922 3.54733 22.8679C4.21653 23.2571 4.75589 24.2911 4.75589 24.2911C4.75589 24.2911 3.65196 24.1143 3.21815 23.6636C2.69483 23.1219 2.20206 21.6504 2.18739 21.6043Z" fill="#929292"/>
<path id="path818" d="M2.71282 21.9698C3.16466 22.1916 3.56272 22.338 4.04893 22.6481C4.33274 22.8289 4.73401 23.5723 4.76762 23.9942C4.80672 24.1662 4.75586 24.2911 4.75586 24.2911C4.75586 24.2911 4.2165 23.2571 3.5473 22.8679C2.90208 22.4922 2.23548 21.6646 2.18965 21.6064C2.22112 21.6328 2.47728 21.8539 2.71282 21.9698Z" fill="#262626"/>
<path id="path820" d="M4.54734 20.5841C4.54734 20.5855 4.54811 20.5863 4.54811 20.5877C4.5536 20.6739 4.64464 21.9115 5.00865 22.7086C5.3864 23.5352 5.22387 24.8795 5.22387 24.8795C5.22387 24.8795 4.29881 23.9544 4.18257 23.2317C4.04113 22.3619 4.53146 20.6375 4.54734 20.5841Z" fill="#929292"/>
<path id="path822" d="M4.80528 21.2894C5.08695 21.8088 5.36694 22.2202 5.62372 22.8465C5.77372 23.2119 5.66939 24.1876 5.42743 24.608C5.35273 24.7969 5.22397 24.8795 5.22397 24.8795C5.22397 24.8795 5.38649 23.5352 5.00874 22.7086C4.64474 21.9115 4.5537 20.6739 4.5482 20.5877C4.56073 20.6342 4.65879 21.0183 4.80528 21.2894Z" fill="#262626"/>
<path id="path824" d="M2.28958 25.6658C2.2908 25.6664 2.29172 25.6659 2.29294 25.6666C2.37207 25.6955 3.51174 26.0998 4.36698 26.0716C5.25385 26.0421 6.38833 26.7284 6.38833 26.7284C6.38833 26.7284 5.19688 27.2361 4.50629 27.0597C3.67442 26.8486 2.33082 25.7021 2.28958 25.6658Z" fill="#929292"/>
<path id="path826" d="M3.02078 25.7016C3.59558 25.641 4.07338 25.5394 4.73357 25.5449C5.1188 25.5478 5.94778 26.0331 6.22685 26.4282C6.3657 26.5739 6.38831 26.7283 6.38831 26.7283C6.38831 26.7283 5.25383 26.042 4.36697 26.0716C3.51172 26.0997 2.37205 25.6954 2.29292 25.6665C2.33951 25.673 2.72093 25.7327 3.02078 25.7016Z" fill="#262626"/>
<path id="path828" d="M4.72977 24.3732C4.73038 24.3745 4.73129 24.3748 4.7319 24.376C4.77437 24.4506 5.395 25.5146 6.06771 26.059C6.76547 26.6233 7.206 27.8999 7.206 27.8999C7.206 27.8999 5.97621 27.5001 5.55737 26.9079C5.05192 26.196 4.73878 24.4284 4.72977 24.3732Z" fill="#929292"/>
<path id="path830" d="M5.26746 24.8846C5.74557 25.2186 6.1751 25.4571 6.67735 25.8982C6.97063 26.1554 7.30255 27.0757 7.26956 27.563C7.28514 27.7665 7.20602 27.8999 7.20602 27.8999C7.20602 27.8999 6.76549 26.6233 6.06772 26.059C5.39501 25.5146 4.77438 24.4506 4.73192 24.376C4.76354 24.4119 5.01833 24.7099 5.26746 24.8846Z" fill="#262626"/>
<path id="path832" d="M7.41453 24.1065C7.41453 24.1081 7.41529 24.1087 7.41529 24.1101C7.42186 24.1963 7.52879 25.4325 7.90303 26.2246C8.29132 27.046 8.1462 28.3924 8.1462 28.3924C8.1462 28.3924 7.20939 27.48 7.08383 26.759C6.93123 25.8912 7.39926 24.1603 7.41453 24.1065Z" fill="#929292"/>
<path id="path834" d="M7.6813 24.8084C7.96954 25.3238 8.25488 25.7314 8.51959 26.354C8.67433 26.7173 8.58252 27.6945 8.34607 28.1182C8.27381 28.3082 8.14611 28.3924 8.14611 28.3924C8.14611 28.3924 8.29123 27.046 7.90294 26.2246C7.5287 25.4325 7.42178 24.1963 7.41521 24.1101C7.42834 24.1565 7.5313 24.5393 7.6813 24.8084Z" fill="#262626"/>
<path id="path836" d="M9.24506 25.2658C9.24506 25.2672 9.24567 25.268 9.24582 25.2694C9.25239 25.3556 9.35932 26.5916 9.73356 27.3839C10.1218 28.2051 9.97658 29.5517 9.97658 29.5517C9.97658 29.5517 9.03977 28.6391 8.91436 27.9181C8.76161 27.0504 9.22964 25.3194 9.24506 25.2658Z" fill="#929292"/>
<path id="path838" d="M9.51194 25.9676C9.80018 26.483 10.0855 26.8906 10.3502 27.5133C10.505 27.8766 10.4132 28.8536 10.1767 29.2773C10.1043 29.4672 9.97661 29.5517 9.97661 29.5517C9.97661 29.5517 10.1219 28.2051 9.73358 27.3839C9.35935 26.5916 9.25242 25.3556 9.24585 25.2694C9.25899 25.3158 9.36179 25.6984 9.51194 25.9676Z" fill="#262626"/>
<path id="path840" d="M3.76103 28.4997C3.76241 28.5 3.76332 28.4995 3.7647 28.4998C3.85131 28.5157 5.09668 28.7313 5.97576 28.5505C6.88707 28.3627 8.17429 28.8706 8.17429 28.8706C8.17429 28.8706 7.02805 29.6068 6.28492 29.5469C5.39011 29.4764 3.80991 28.5298 3.76103 28.4997Z" fill="#929292"/>
<path id="path842" d="M4.52259 28.4069C5.1064 28.2426 5.58329 28.0527 6.26639 27.9413C6.66492 27.876 7.60265 28.2305 7.95718 28.5893C8.12506 28.7149 8.17424 28.8707 8.17424 28.8707C8.17424 28.8707 6.88702 28.3627 5.97571 28.5505C5.09663 28.7314 3.85126 28.5157 3.76465 28.4998C3.81383 28.4984 4.21786 28.4923 4.52259 28.4069Z" fill="#262626"/>
<path id="path844" d="M7.41521 31.466C7.41643 31.4657 7.41673 31.4649 7.41796 31.4646C7.48807 31.4386 8.48935 31.0563 9.05987 30.542C9.65116 30.0087 10.8029 29.8222 10.8029 29.8222C10.8029 29.8222 10.264 30.8595 9.69455 31.1383C9.00961 31.475 7.46332 31.467 7.41521 31.466Z" fill="#929292"/>
<path id="path846" d="M7.93567 31.0676C8.29632 30.6936 8.56821 30.3473 9.02341 29.9691C9.28889 29.7481 10.1217 29.6009 10.5286 29.7103C10.7032 29.7296 10.8029 29.8222 10.8029 29.8222C10.8029 29.8222 9.65121 30.0087 9.05991 30.542C8.48939 31.0563 7.48811 31.4387 7.418 31.4646C7.45344 31.4422 7.74718 31.2624 7.93567 31.0676Z" fill="#262626"/>
<path id="path848" d="M13.5849 12.6903C13.5838 12.6907 13.5835 12.6914 13.5822 12.6919C13.516 12.7194 12.5669 13.1242 12.0367 13.6397C11.4871 14.1742 10.3867 14.3963 10.3867 14.3963C10.3867 14.3963 10.8683 13.3793 11.4057 13.0903C12.0522 12.7411 13.5386 12.6913 13.5849 12.6903Z" fill="#929292"/>
<path id="path850" d="M13.0988 13.0928C12.7652 13.4656 12.5161 13.8084 12.0919 14.1888C11.8444 14.4111 11.0493 14.5836 10.6545 14.4938C10.486 14.4817 10.3867 14.3963 10.3867 14.3963C10.3867 14.3963 11.4871 14.1742 12.0367 13.6397C12.5669 13.1242 13.516 12.7194 13.5822 12.6919C13.549 12.7147 13.2729 12.8985 13.0988 13.0928Z" fill="#262626"/>
<path id="path852" d="M11.28 12.131C11.2794 12.1319 11.2795 12.1328 11.2788 12.1338C11.2401 12.1957 10.6934 13.0912 10.5506 13.8273C10.4027 14.5906 9.62983 15.4271 9.62983 15.4271C9.62983 15.4271 9.45126 14.3107 9.72728 13.755C10.0583 13.085 11.2427 12.1593 11.28 12.131Z" fill="#929292"/>
<path id="path854" d="M11.1097 12.7487C11.0471 13.2516 11.0365 13.6795 10.9041 14.2425C10.8273 14.5712 10.2755 15.1853 9.90297 15.3473C9.75877 15.4377 9.62985 15.4271 9.62985 15.4271C9.62985 15.4271 10.4028 14.5907 10.5506 13.8274C10.6935 13.0912 11.2401 12.1958 11.2788 12.1338C11.2646 12.1724 11.1427 12.4866 11.1097 12.7487Z" fill="#262626"/>
<path id="path856" d="M9.43257 13.0141C9.43227 13.0151 9.43257 13.0157 9.43211 13.0167C9.41592 13.0736 9.19 13.8938 9.24133 14.4966C9.29479 15.1217 8.88084 15.9491 8.88084 15.9491C8.88084 15.9491 8.49713 15.1269 8.58847 14.6326C8.69723 14.0373 9.40997 13.0448 9.43257 13.0141Z" fill="#929292"/>
<path id="path858" d="M9.43656 13.5318C9.49873 13.9355 9.58473 14.2691 9.60627 14.7355C9.61895 15.0075 9.32719 15.6114 9.07455 15.8236C8.9829 15.9272 8.88086 15.9491 8.88086 15.9491C8.88086 15.9491 9.29481 15.1217 9.24135 14.4966C9.19003 13.8938 9.41594 13.0736 9.43214 13.0167C9.42954 13.0498 9.40449 13.3213 9.43656 13.5318Z" fill="#262626"/>
<path id="path860" d="M13.1869 14.9995C13.186 14.9997 13.1856 15.0003 13.1845 15.0006C13.1242 15.0165 12.2594 15.2549 11.7444 15.6378C11.2103 16.0351 10.235 16.0977 10.235 16.0977C10.235 16.0977 10.7637 15.2757 11.2601 15.089C11.8572 14.8634 13.1469 14.9948 13.1869 14.9995Z" fill="#929292"/>
<path id="path862" d="M12.7224 15.2902C12.3929 15.5731 12.1397 15.8399 11.7311 16.1187C11.4928 16.2817 10.7866 16.3373 10.4555 16.2133C10.3113 16.1831 10.235 16.0977 10.235 16.0977C10.235 16.0977 11.2103 16.0351 11.7444 15.6378C12.2594 15.2549 13.1242 15.0165 13.1845 15.0006C13.1532 15.0164 12.8944 15.1428 12.7224 15.2902Z" fill="#262626"/>
<path id="path864" d="M10.5471 14.4502C10.5463 14.4512 10.5463 14.452 10.5455 14.4527C10.504 14.5084 9.91499 15.314 9.72206 16.0014C9.52211 16.7144 8.72277 17.4452 8.72277 17.4452C8.72277 17.4452 8.63998 16.3699 8.94548 15.8648C9.31208 15.2559 10.5095 14.474 10.5471 14.4502Z" fill="#929292"/>
<path id="path866" d="M10.3371 15.023C10.2384 15.4955 10.1951 15.9011 10.0255 16.4251C9.92683 16.7308 9.35494 17.2688 8.98849 17.3918C8.84445 17.4658 8.72285 17.4452 8.72285 17.4452C8.72285 17.4452 9.5222 16.7144 9.72215 16.0014C9.91507 15.3141 10.5041 14.5084 10.5456 14.4528C10.5291 14.4881 10.3889 14.7767 10.3371 15.023Z" fill="#262626"/>
<path id="path868" d="M11.0648 16.8026C11.0637 16.8029 11.0634 16.8037 11.0624 16.8042C11.0001 16.833 10.1106 17.2547 9.62408 17.7658C9.1197 18.2959 8.07947 18.5493 8.07947 18.5493C8.07947 18.5493 8.50167 17.5622 9.0033 17.2664C9.60651 16.9092 11.0207 16.8051 11.0648 16.8026Z" fill="#929292"/>
<path id="path870" d="M10.6162 17.2045C10.3118 17.5723 10.0868 17.9083 9.69618 18.2869C9.46858 18.508 8.71735 18.7025 8.33792 18.632C8.17692 18.6269 8.07947 18.5493 8.07947 18.5493C8.07947 18.5493 9.11969 18.296 9.62408 17.7659C10.1106 17.2548 11.0001 16.833 11.0624 16.8042C11.0315 16.8272 10.7751 17.0128 10.6162 17.2045Z" fill="#262626"/>
<path id="path872" d="M7.07854 14.5177C7.07839 14.5193 7.07916 14.5199 7.079 14.5215C7.07687 14.6092 7.06006 15.87 7.35823 16.7107C7.66755 17.5824 7.38481 18.9277 7.38481 18.9277C7.38481 18.9277 6.53017 17.9051 6.47625 17.163C6.40965 16.2696 7.05762 14.5704 7.07854 14.5177Z" fill="#929292"/>
<path id="path874" d="M7.27711 15.2556C7.51647 15.8074 7.76362 16.2499 7.96816 16.9077C8.08776 17.2913 7.89621 18.269 7.61454 18.6719C7.52213 18.8562 7.38465 18.9277 7.38465 18.9277C7.38465 18.9277 7.66739 17.5824 7.35807 16.7107C7.0599 15.87 7.07671 14.6092 7.07884 14.5215C7.0874 14.5698 7.15278 14.9676 7.27711 15.2556Z" fill="#262626"/>
<path id="path876" d="M8.84981 16.1428C8.84905 16.144 8.84936 16.145 8.84859 16.1462C8.8075 16.2233 8.22873 17.3345 8.11768 18.2222C8.00266 19.1426 7.15016 20.2029 7.15016 20.2029C7.15016 20.2029 6.84863 18.8902 7.13244 18.2057C7.47277 17.381 8.80766 16.1796 8.84981 16.1428Z" fill="#929292"/>
<path id="path878" d="M8.69659 16.8919C8.66222 17.4953 8.68376 18.0053 8.57133 18.6861C8.50611 19.0833 7.89893 19.8607 7.46878 20.0848C7.30443 20.2046 7.1503 20.2029 7.1503 20.2029C7.1503 20.2029 8.0028 19.1426 8.11782 18.2222C8.22887 17.3345 8.80764 16.2233 8.84873 16.1462C8.83467 16.1932 8.71477 16.5774 8.69659 16.8919Z" fill="#262626"/>
<path id="path880" d="M9.77898 18.9277C9.77806 18.9283 9.77791 18.9292 9.77699 18.93C9.71986 18.9791 8.9083 19.6923 8.54491 20.3763C8.16838 21.0859 7.1503 21.6684 7.1503 21.6684C7.1503 21.6684 7.30947 20.5047 7.75061 20.0417C8.2805 19.4834 9.73361 18.9437 9.77898 18.9277Z" fill="#929292"/>
<path id="path882" d="M9.42399 19.4856C9.21044 19.964 9.07113 20.385 8.77037 20.9008C8.59516 21.2019 7.86319 21.6347 7.44511 21.6762C7.27479 21.72 7.1503 21.6684 7.1503 21.6684C7.1503 21.6684 8.16838 21.0859 8.54491 20.3763C8.9083 19.6923 9.71986 18.9791 9.77699 18.93C9.75118 18.9635 9.53565 19.2362 9.42399 19.4856Z" fill="#262626"/>
<path id="path884" d="M6.17508 18.5494C6.17523 18.5505 6.17584 18.5509 6.17615 18.5519C6.19096 18.6152 6.41291 19.5222 6.78272 20.066C7.16627 20.6297 7.21332 21.6496 7.21332 21.6496C7.21332 21.6496 6.41108 21.0848 6.23465 20.5637C6.02095 19.9364 6.16988 18.5912 6.17508 18.5494Z" fill="#929292"/>
<path id="path886" d="M6.4547 19.0391C6.72858 19.3874 6.9878 19.656 7.25649 20.087C7.41352 20.3385 7.45781 21.0768 7.33073 21.4209C7.29865 21.5711 7.21342 21.6496 7.21342 21.6496C7.21342 21.6496 7.16637 20.6297 6.78281 20.066C6.413 19.5222 6.19106 18.6153 6.17624 18.5519C6.19136 18.5849 6.31203 18.8571 6.4547 19.0391Z" fill="#262626"/>
<path id="path888" d="M8.83459 21.3196C8.83368 21.3202 8.83368 21.321 8.83276 21.3216C8.78526 21.3647 8.10949 21.9897 7.81453 22.58C7.50887 23.1922 6.65454 23.7104 6.65454 23.7104C6.65454 23.7104 6.76574 22.7165 7.13143 22.3128C7.57074 21.8258 8.7961 21.3344 8.83459 21.3196Z" fill="#929292"/>
<path id="path890" d="M8.54406 21.8024C8.37237 22.2142 8.26239 22.5756 8.01723 23.0213C7.8744 23.2815 7.2605 23.666 6.90551 23.7107C6.76162 23.7516 6.65454 23.7104 6.65454 23.7104C6.65454 23.7104 7.50887 23.1922 7.81453 22.58C8.10949 21.9897 8.78526 21.3647 8.83276 21.3216C8.81153 21.3509 8.63388 21.5877 8.54406 21.8024Z" fill="#262626"/>
<path id="path892" d="M6.75036 21.0475C6.7499 21.049 6.75051 21.0499 6.75005 21.0513C6.7305 21.1388 6.46181 22.396 6.59211 23.3C6.7276 24.2372 6.17602 25.5226 6.17602 25.5226C6.17602 25.5226 5.52561 24.3191 5.61985 23.5656C5.73167 22.658 6.71889 21.0958 6.75036 21.0475Z" fill="#929292"/>
<path id="path894" d="M6.80187 21.8275C6.93095 22.4302 7.08981 22.9249 7.16298 23.626C7.20621 24.035 6.81929 24.9724 6.45712 25.3156C6.32804 25.4802 6.17606 25.5226 6.17606 25.5226C6.17606 25.5226 6.72764 24.2372 6.59215 23.3C6.46185 22.396 6.73054 21.1388 6.75009 21.0513C6.74902 21.1015 6.73497 21.5132 6.80187 21.8275Z" fill="#262626"/>
<path id="path602" d="M17.1975 25.0921H12.9865V24.1798C14.4289 23.1051 15.5331 22.1381 15.5331 21.3242C15.5331 20.3331 14.2691 20.3179 13.2422 21.035H13.127V19.8072C14.2175 19.3174 16.9488 19.0453 16.9488 21.1314C16.9488 22.3055 15.8835 23.2251 14.7875 24.035H17.1975V25.0921Z" fill="#292525"/>
</g>
</svg>
