<svg width="90" height="90" viewBox="0 0 90 90" fill="none" xmlns="http://www.w3.org/2000/svg">
<g id="&#240;&#159;&#166;&#134; icon &#34;strength&#34;">
<path id="Vector" d="M44.858 89.7159C69.6323 89.7159 89.7159 69.6323 89.7159 44.858C89.7159 20.0836 69.6323 0 44.858 0C20.0836 0 0 20.0836 0 44.858C0 69.6323 20.0836 89.7159 44.858 89.7159Z" fill="#141414"/>
<path id="Vector_2" d="M44.8579 80.2537C64.4065 80.2537 80.2537 64.4065 80.2537 44.8579C80.2537 25.3094 64.4065 9.46222 44.8579 9.46222C25.3094 9.46222 9.46222 25.3094 9.46222 44.8579C9.46222 64.4065 25.3094 80.2537 44.8579 80.2537Z" fill="#141414" stroke="white" stroke-width="6.30815"/>
<path id="Vector_3" d="M33.2229 26.1123C31.1412 30.3632 20.2807 55.1963 21.29 58.7009C23.0388 64.7987 63.7824 61.2592 70.0205 56.1075C71.4223 55.2664 72.1232 50.8157 70.1607 47.8719C64.6235 39.6012 49.9395 39.3208 38.4447 48.6078C37.0078 49.7643 35.6411 51.061 34.3374 52.5329C34.9822 45.8042 36.7976 36.7976 41.2133 30.3983L53.1637 28.6741L52.7432 24.2338C47.1009 21.2865 36.1667 20.0634 33.2229 26.1123Z" fill="white"/>
</g>
</svg>
