<svg width="90" height="90" viewBox="0 0 90 90" fill="none" xmlns="http://www.w3.org/2000/svg">
<g id="&#240;&#159;&#166;&#134; icon &#34;yin yang&#34;">
<path id="Vector" d="M0 0H89.7159V89.7159H0V0Z" fill="#141414"/>
<path id="Vector_2" d="M44.858 4.03021C22.3281 4.03021 4.03021 22.3281 4.03021 44.858C4.03021 67.3879 22.3281 85.6857 44.858 85.6857C67.3879 85.6857 85.6857 67.3879 85.6857 44.858C85.6857 22.3281 67.3879 4.03021 44.858 4.03021ZM43.7901 7.20006C22.4353 8.37705 22.791 44.858 44.858 44.858C66.7989 44.858 67.2756 80.9322 46.2892 82.5018C45.8143 82.5194 45.3374 82.5316 44.858 82.5316C24.0327 82.5316 7.18429 65.6833 7.18429 44.858C7.18429 24.3898 23.4598 7.76429 43.7901 7.20006ZM44.858 18.0483C48.807 18.0483 52.0422 21.2835 52.0422 25.2326C52.0422 29.1817 48.807 32.4169 44.858 32.4169C40.9089 32.4169 37.6737 29.1817 37.6737 25.2326C37.6737 21.2835 40.9089 18.0483 44.858 18.0483ZM44.858 57.299C40.9089 57.299 37.6737 60.5342 37.6737 64.4833C37.6737 68.4324 40.9089 71.6676 44.858 71.6676C48.807 71.6676 52.0422 68.4324 52.0422 64.4833C52.0422 60.5342 48.807 57.299 44.858 57.299Z" fill="white"/>
</g>
</svg>
